<?xml version="1.0" standalone="no"?>
<!DOCTYPE svg PUBLIC "-//W3C//DTD SVG 1.1//EN" "http://www.w3.org/Graphics/SVG/1.1/DTD/svg11.dtd" >
<svg xmlns="http://www.w3.org/2000/svg" xmlns:xlink="http://www.w3.org/1999/xlink" version="1.1">
<metadata></metadata>
<defs>
<font id="itc_galliard_ultraregular" horiz-adv-x="1062" >
<font-face units-per-em="2048" ascent="1638" descent="-410" />
<missing-glyph horiz-adv-x="645" />
<glyph horiz-adv-x="0" />
<glyph horiz-adv-x="682" />
<glyph unicode=" "  horiz-adv-x="645" />
<glyph unicode="&#x09;" horiz-adv-x="645" />
<glyph unicode="&#xa0;" horiz-adv-x="645" />
<glyph unicode="!" horiz-adv-x="833" d="M199 190q0 92 63.5 156t155.5 64t154.5 -63.5t62.5 -156.5q0 -91 -63 -155t-154 -64t-155 64t-64 155zM199 1188q0 123 57.5 187.5t165.5 64.5q100 0 156.5 -64.5t56.5 -181.5q0 -86 -40 -258t-124 -467q-18 4 -55 4q-36 0 -54 -4q-163 568 -163 719z" />
<glyph unicode="&#x22;" horiz-adv-x="729" d="M68 1341q0 55 33 89t87 34t87.5 -34t33.5 -89q0 -12 -4 -36l-92 -467h-49l-92 467q-4 24 -4 36zM420 1341q0 55 33.5 89t87.5 34t87.5 -34t33.5 -89q0 -6 -5 -36l-92 -467h-49l-92 467q-4 24 -4 36z" />
<glyph unicode="#" horiz-adv-x="1820" d="M113 291v203q232 -12 438 -15l119 344q-117 0 -418 -14v195q243 -12 467 -15q85 242 139 477l160 -55q-100 -221 -174 -426h354q86 274 135 473l158 -59q-89 -173 -166 -412q205 3 377 14v-192q-211 11 -442 14l-117 -344q210 3 416 15v-199q-161 8 -469 12 q-108 -268 -168 -555l-158 64q115 254 203 499h-357q-115 -370 -168 -546l-161 59q124 245 206 481q-175 0 -374 -18zM670 479h354l119 346h-355z" />
<glyph unicode="$" horiz-adv-x="1290" d="M102 539l82 18q51 -198 147 -312t244 -149v492q-221 87 -320 185t-99 245q0 180 116.5 283.5t343.5 125.5l-6 152h119l-4 -152q182 -12 365 -90q4 -244 10 -358l-88 -6q-39 175 -111 261.5t-170 88.5v-432q234 -93 341.5 -200t107.5 -261q0 -187 -126 -301t-354 -129 l5 -211h-123l4 209q-244 15 -430 96q-16 204 -54 445zM475 1135q0 -142 156 -211v399q-73 -13 -114.5 -63.5t-41.5 -124.5zM682 96q90 15 140 69t50 134q0 84 -46.5 146t-143.5 108v-457z" />
<glyph unicode="%" horiz-adv-x="1857" d="M72 1032q0 202 105.5 320t277.5 118t276.5 -118t104.5 -320t-104.5 -319t-276.5 -117t-277.5 117t-105.5 319zM342 1049q0 -191 26.5 -284t84.5 -93q56 0 82 85t26 259q0 193 -25.5 285t-82.5 92q-111 0 -111 -344zM418 -16q478 765 872 1534l180 -93 q-481 -721 -878 -1519zM1051 395q0 202 105.5 319t277.5 117t276.5 -117t104.5 -319t-104.5 -320t-276.5 -118t-277.5 118t-105.5 320zM1323 410q0 -192 26.5 -285.5t84.5 -93.5q56 0 82 85t26 259q0 193 -25.5 285t-82.5 92q-111 0 -111 -342z" />
<glyph unicode="&#x26;" horiz-adv-x="1896" d="M102 395q0 286 322 389q-211 147 -211 320q0 163 147 264.5t402 101.5q232 0 363.5 -87.5t131.5 -229.5q0 -101 -90 -176q371 3 734 27l6 -91q-161 -34 -296 -137.5t-304 -298.5q62 -66 96 -101t82.5 -82t81.5 -70t75 -47t82 -33t84 -9q53 0 105 8l6 -92 q-267 -84 -481 -84q-228 0 -279 70q-9 11 -37.5 64.5t-56.5 84.5q-230 -233 -490 -233q-219 0 -346 120.5t-127 321.5zM471 543q0 -135 93.5 -229.5t228.5 -94.5q109 0 192 53q-212 240 -465 441q-49 -85 -49 -170zM596 1204q0 -54 50.5 -119t154.5 -151q69 106 69 192 q0 93 -45.5 151t-113.5 58q-49 0 -82 -36t-33 -95zM877 877q156 -114 346 -308q80 124 80 213q0 41 -28 59t-110 46q-8 3 -12 4v74q-94 -73 -276 -76v-12z" />
<glyph unicode="'" horiz-adv-x="378" d="M70 1341q0 55 32.5 89t85.5 34q54 0 87.5 -34t33.5 -89q0 -12 -4 -36l-92 -467h-47l-92 467q-4 24 -4 36z" />
<glyph unicode="(" horiz-adv-x="948" d="M283 455q0 290 151.5 536.5t460.5 462.5l66 -72q-308 -375 -308 -927q0 -559 308 -930l-66 -74q-308 216 -460 464.5t-152 539.5z" />
<glyph unicode=")" horiz-adv-x="948" d="M72 -473q307 374 307 928q0 557 -307 927l63 74q309 -216 461 -463t152 -538t-152 -538.5t-461 -463.5z" />
<glyph unicode="*" horiz-adv-x="1138" d="M141 1010v65q167 34 334 43q-63 128 -121 303l56 37q114 -126 200 -272q103 149 209 270l58 -35q-51 -146 -132 -309q156 -10 345 -45v-66q-176 -29 -342 -38q63 -137 126 -310l-63 -32q-86 102 -201 270q-99 -153 -200 -266l-56 37q49 155 119 305q-152 11 -332 43z" />
<glyph unicode="+" horiz-adv-x="1705" d="M254 475v273h459v473h280v-473h459v-273h-459v-475h-280v475h-459z" />
<glyph unicode="," horiz-adv-x="645" d="M23 217q0 86 66.5 141.5t174.5 55.5q140 0 231 -95t91 -245q0 -202 -137.5 -327.5t-397.5 -156.5l-14 103q161 30 235 86t74 153q0 39 -8.5 63t-36.5 38.5t-45.5 19t-69.5 12.5q-5 1 -8.5 1.5t-7.5 1.5q-76 12 -111.5 48t-35.5 101z" />
<glyph unicode="-" horiz-adv-x="872" d="M123 356v332h627v-332h-627z" />
<glyph unicode="." horiz-adv-x="645" d="M92 203q0 97 66.5 164t163.5 67t164 -67t67 -164t-67 -164.5t-164 -67.5t-163.5 67.5t-66.5 164.5z" />
<glyph unicode="/" horiz-adv-x="681" d="M-41 -424q248 839 508 1845l203 -55q-262 -869 -508 -1851z" />
<glyph unicode="0" horiz-adv-x="1290" d="M72 715q0 351 157.5 553t415.5 202t416 -202t158 -553t-158 -552.5t-416 -201.5t-415.5 201.5t-157.5 552.5zM465 717q0 -317 43 -470t137 -153q180 0 180 584q0 340 -42 499.5t-138 159.5q-94 0 -137 -152t-43 -468z" />
<glyph unicode="1" horiz-adv-x="1290" d="M178 0v80q203 21 266 102q35 46 43.5 147t8.5 322q0 173 -1 252.5t-8.5 165.5t-23.5 129q-20 56 -89.5 92t-195.5 60v80h172q263 0 539 6q-21 -448 -21 -734v-106q0 -188 9 -280t41 -134q57 -75 258 -102v-80q-249 6 -498 6q-248 0 -500 -6z" />
<glyph unicode="2" horiz-adv-x="1290" d="M2 88q354 262 527 478t173 407q0 113 -62 178.5t-167 65.5q-162 0 -321 -197l-76 55q96 194 236.5 294.5t314.5 100.5q205 0 332.5 -119.5t127.5 -310.5q0 -202 -161.5 -371.5t-505.5 -349.5l6 -12h348q199 0 258 33q61 35 142 176l75 -37l-176 -479q-301 14 -534 14 q-257 0 -506 -14z" />
<glyph unicode="3" horiz-adv-x="1290" d="M70 258q0 76 48 122t132 46q108 0 194 -80q-24 -58 -24 -98q0 -69 50.5 -117.5t123.5 -48.5q86 0 143.5 67.5t57.5 174.5q0 148 -87.5 227.5t-250.5 79.5q-71 0 -168 -19l-45 70l162 131q170 27 248.5 83t78.5 159q0 89 -60.5 141.5t-164.5 52.5q-177 0 -334 -157l-55 61 q206 317 567 317q191 0 308.5 -88t117.5 -225q0 -116 -88.5 -192.5t-261.5 -110.5l4 -27q185 -20 289 -125.5t104 -267.5q0 -207 -164.5 -337t-437.5 -130q-222 0 -354.5 83.5t-132.5 207.5z" />
<glyph unicode="4" horiz-adv-x="1290" d="M10 504l830 991l170 -76q-21 -151 -21 -405v-410h293v-217h-293q0 -6 -1 -19t-1 -18q0 -128 67 -187t228 -83v-80q-243 6 -481 6q-236 0 -473 -6v80q167 19 239 79t72 187q0 7 -1 20.5t-1 20.5h-72q-252 0 -489 -18zM223 592l10 -12q99 24 213 24h191v465l-14 2 q-129 -205 -400 -479z" />
<glyph unicode="5" horiz-adv-x="1290" d="M90 254q0 74 48 120t126 46q122 0 201 -92q-31 -60 -31 -103q0 -67 50 -112t126 -45q90 0 143.5 68t53.5 186q0 156 -89.5 240.5t-254.5 84.5q-127 0 -256 -72l-41 37l108 813h615q68 0 108.5 24.5t79.5 92.5l68 -29l-113 -393h-663l-35 -237q141 24 254 24 q278 0 433 -126t155 -341t-167 -347t-448 -132q-220 0 -345.5 80.5t-125.5 212.5z" />
<glyph unicode="6" horiz-adv-x="1290" d="M74 518q0 353 276 610t780 357l27 -90q-406 -171 -563 -463q96 22 166 22q211 0 342 -131.5t131 -339.5q0 -149 -72 -267.5t-205 -186.5t-305 -68q-263 0 -420 152.5t-157 404.5zM467 444q0 -162 53 -254t139 -92q77 0 128 77t51 210q0 196 -75 317.5t-210 151.5 q-86 -166 -86 -410z" />
<glyph unicode="7" horiz-adv-x="1290" d="M92 952l123 480q374 -9 502 -9q123 0 510 9l53 -84l-680 -1190q-51 -90 -100 -197h-238q64 111 125 211l569 936h-462q-51 0 -77.5 -1t-62.5 -6.5t-57 -17.5t-46.5 -32.5t-46 -52.5t-42.5 -78z" />
<glyph unicode="8" horiz-adv-x="1290" d="M90 334q0 125 81 214.5t247 149.5q-153 90 -220 178.5t-67 213.5q0 171 142 274.5t389 103.5q232 0 363.5 -91.5t131.5 -246.5q0 -118 -77 -203t-222 -126q175 -99 259.5 -205t84.5 -231q0 -188 -147 -298t-412 -110q-264 0 -408.5 101t-144.5 276zM440 399 q0 -139 67 -227t163 -88q84 0 135 51t51 131q0 134 -158 242l-206 139q-52 -122 -52 -248zM473 1184q0 -68 39 -122t123 -114l153 -108q41 96 41 233q0 122 -56.5 198.5t-139.5 76.5q-69 0 -114.5 -46t-45.5 -118z" />
<glyph unicode="9" horiz-adv-x="1290" d="M72 948q0 227 161 374.5t420 147.5q263 0 420.5 -153.5t157.5 -403.5q0 -360 -281 -612t-823 -371l-27 88q446 171 611 482q-91 -21 -166 -21q-211 0 -342 130.5t-131 338.5zM467 1038q0 -190 75.5 -310t207.5 -150q88 154 88 411q0 158 -53 249t-138 91 q-79 0 -129.5 -78t-50.5 -213z" />
<glyph unicode=":" horiz-adv-x="720" d="M129 203q0 97 67 164t164 67t163.5 -67t66.5 -164t-66.5 -164.5t-163.5 -67.5t-164 67.5t-67 164.5zM129 723q0 97 67 163t164 66t163.5 -66t66.5 -163t-66.5 -164t-163.5 -67t-164 67t-67 164z" />
<glyph unicode=";" horiz-adv-x="720" d="M72 217q0 86 66.5 141.5t174.5 55.5q140 0 231 -95t91 -245q0 -202 -137.5 -327.5t-397.5 -156.5l-14 103q161 30 235 86t74 153q0 39 -10 63.5t-33 37.5t-48.5 19.5t-67.5 13.5q-3 0 -5 0.5t-5 1t-5 0.5q-76 12 -112.5 48t-36.5 101zM100 723q0 96 67.5 162.5 t164.5 66.5t164 -66t67 -163t-67 -164t-164 -67t-164.5 67t-67.5 164z" />
<glyph unicode="&#x3c;" horiz-adv-x="1705" d="M264 471v281l1178 487v-301l-801 -328l801 -327v-299z" />
<glyph unicode="=" horiz-adv-x="1705" d="M254 240v272h1198v-272h-1198zM254 711v272h1198v-272h-1198z" />
<glyph unicode="&#x3e;" horiz-adv-x="1705" d="M264 -16v299l801 327l-801 328v301l1178 -487v-281z" />
<glyph unicode="?" horiz-adv-x="985" d="M168 190q0 92 63.5 156t155.5 64t155.5 -64t63.5 -156q0 -91 -64 -155t-155 -64t-155 64t-64 155zM240 1190q0 102 73 334h93q6 -60 24 -78q8 -10 33.5 -18.5t69 -23.5t81.5 -34q106 -54 152.5 -167t46.5 -314t-57 -291q-47 -72 -147.5 -107t-289.5 -57q-45 158 -45 225 q0 47 13.5 78.5t48 53.5t77 35.5t117.5 29.5l185 39l-4 47q-471 88 -471 248z" />
<glyph unicode="@" horiz-adv-x="2048" d="M154 567q0 352 237 607q134 145 315.5 222t393.5 77q342 0 581 -216q118 -107 180 -243.5t62 -288.5q0 -261 -180 -438q-190 -187 -459 -187q-107 0 -264 39q108 219 227 488l-22 10q-258 -370 -520 -528q-81 14 -160 108q46 432 195 642t442 239q99 -40 186 -107 q42 58 74 85.5t63 27.5q44 0 72.5 -28.5t28.5 -76.5q0 -8 -1 -17.5t-2.5 -17t-4.5 -19t-5 -18t-6.5 -20.5t-7 -20t-8.5 -22.5t-8 -22.5l-205 -555q50 -11 78 -11q94 0 186 68q213 157 213 424q0 257 -199 428q-192 162 -462 162q-302 0 -529 -193q-141 -120 -217 -290.5 t-76 -368.5q0 -335 199 -531q112 -110 253.5 -167.5t297.5 -57.5q221 0 434 119q48 26 93 60.5t69.5 53.5t38.5 19q12 0 19 -7t7 -18q0 -23 -25.5 -47.5t-86.5 -66.5q-266 -189 -564 -189q-177 0 -340 58t-296 166q-144 118 -220.5 289t-76.5 380zM870 395l23 -14 q172 152 342 395q-80 89 -172 160q-115 -251 -193 -541z" />
<glyph unicode="A" horiz-adv-x="1593" d="M-57 0v80q122 42 168 96q32 38 74.5 118.5t76 153.5t103.5 234l225 516l-43 82q169 75 276 231h107l346 -909q97 -256 130 -324q31 -62 60 -98q62 -73 189 -100v-80q-199 6 -418 6q-217 0 -451 -6v80q89 12 136 43t47 76q0 75 -80 282h-416q-45 -128 -45 -221 q0 -79 55.5 -117.5t192.5 -62.5v-80q-133 4 -385 4q-237 0 -348 -4zM537 682h274l-145 387z" />
<glyph unicode="B" horiz-adv-x="1630" d="M0 1341v80q337 23 672 23q387 0 573.5 -86t186.5 -273q0 -110 -74.5 -185t-218.5 -105v-9q189 -51 290 -157t101 -248q0 -198 -157 -292.5t-478 -94.5q-38 0 -225.5 6t-335.5 6q-144 0 -316 -6v80q167 30 218 94q35 45 44 161t9 376q0 259 -9 375t-44 163q-56 71 -236 92 zM694 475q0 -79 3.5 -130t14 -98t30 -72.5t51.5 -40.5t79 -15q90 0 144.5 59t54.5 158q0 139 -101 232.5t-276 103.5v-197zM694 807q289 6 289 244q0 126 -74 194.5t-215 71.5v-510z" />
<glyph unicode="C" horiz-adv-x="1705" d="M84 700q0 170 63 313t177.5 243.5t281 157t367.5 56.5q282 0 547 -100v-506h-121q-47 228 -153 344.5t-265 116.5q-193 0 -310.5 -157.5t-117.5 -432.5q0 -288 116.5 -456t303.5 -168q164 0 299.5 130t236.5 386l115 -29q-79 -387 -137 -541q-222 -98 -520 -98 q-411 0 -647 199t-236 542z" />
<glyph unicode="D" horiz-adv-x="1820" d="M0 1341v80q361 25 557 25q1176 0 1176 -760q0 -199 -90.5 -352t-258.5 -238q-111 -56 -243.5 -77t-311.5 -21q-44 0 -212 3t-293 3q-84 0 -306 -4v80q167 30 218 94q35 45 44 161t9 376q0 259 -9 376t-44 162q-55 71 -236 92zM707 514q0 -83 5 -138.5t18.5 -103t37.5 -74 t62 -41t92 -14.5q146 0 235.5 135t89.5 373q0 296 -139.5 467t-400.5 197v-801z" />
<glyph unicode="E" horiz-adv-x="1554" d="M0 1346v81h1378l-26 -430h-95q-32 165 -120 233t-271 68h-160v-464h132q127 0 187.5 41t90.5 155h78q-6 -147 -6 -299t6 -311h-78q-26 135 -83.5 180t-194.5 45h-132v-237v-66q0 -55 3 -84t12.5 -57.5t29.5 -40.5t53 -19.5t85 -7.5q200 0 308 105t165 352h111 q0 -374 -78 -590h-1375v80q164 29 216 94q35 45 44 162t9 377q0 140 -1 204t-5.5 146t-16 123.5t-30.5 66.5q-56 73 -236 93z" />
<glyph unicode="F" horiz-adv-x="1478" d="M0 1346v81h1378l-26 -430h-95q-32 165 -120 233t-271 68h-159v-487h131q127 0 187.5 41.5t90.5 155.5h78q-6 -147 -6 -299q0 -153 6 -312h-78q-26 135 -83.5 180.5t-194.5 45.5h-131v-150q0 -58 0.5 -82t2.5 -65.5t7 -60.5t13.5 -44.5t23 -41.5t34.5 -29q26 -17 88 -32 t191 -38v-80q-285 6 -547 6q-260 0 -500 -6v80q164 29 216 94q35 45 44 162t9 377t-9 377.5t-44 162.5q-59 73 -236 93z" />
<glyph unicode="G" horiz-adv-x="1820" d="M84 713q0 169 63 309.5t178 239t283 153.5t373 55q336 0 616 -131v-462h-120q-138 440 -476 440q-202 0 -324 -155.5t-122 -416.5q0 -263 131 -446q74 -103 174.5 -160t200.5 -57q26 0 43.5 2.5t29.5 10.5t18.5 16.5t10 27t4 35t0.5 47.5v37q0 191 -45 248 q-29 38 -96.5 62t-185.5 44v86q249 -6 475 -6q229 0 434 6v-86q-43 -10 -73 -22t-49.5 -30.5t-30 -34.5t-16 -47t-6.5 -55.5t-1 -70.5v-22v-154h151v-80q-382 -141 -714 -141q-432 0 -679 204.5t-247 553.5z" />
<glyph unicode="H" horiz-adv-x="2009" d="M25 0v80q161 37 206 94q35 46 44.5 164t9.5 375q0 258 -9.5 376t-44.5 164q-44 56 -206 93v81q237 -6 469 -6q235 0 469 6v-81q-52 -10 -89.5 -22.5t-65.5 -27.5t-46 -39t-29.5 -48t-16.5 -64.5t-7 -79.5t-1 -100v-125h597v125q0 61 -2 100t-7 79.5t-16.5 64.5t-29.5 48 t-46 39t-65.5 27.5t-89.5 22.5v81q237 -6 469 -6q233 0 467 6v-81q-163 -38 -207 -93q-35 -45 -43.5 -160.5t-8.5 -379.5q0 -263 9 -378.5t43 -160.5q44 -57 207 -94v-80q-234 6 -467 6q-232 0 -469 -6v80q45 9 79 18.5t61 24.5t45.5 30t31.5 39.5t20.5 48t12 61t5.5 73 t1 88.5v176h-597v-176q0 -53 0.5 -88.5t5 -73t12 -61t20.5 -48t31.5 -39.5t45.5 -30t61 -24.5t79 -18.5v-80q-234 6 -469 6q-232 0 -469 -6z" />
<glyph unicode="I" d="M33 0v80q175 20 235 94q35 46 44.5 164t9.5 375q0 258 -9.5 376t-44.5 164q-59 73 -235 93v81q249 -6 497 -6q249 0 498 6v-81q-176 -20 -235 -93q-35 -45 -43.5 -160.5t-8.5 -379.5q0 -263 8.5 -378.5t43.5 -160.5q60 -74 235 -94v-80q-249 6 -498 6q-248 0 -497 -6z " />
<glyph unicode="J" d="M-45 -358q215 87 305 272q48 97 60 232t12 384v45v175q0 213 -6 318.5t-27 156.5q-40 97 -254 121v81q249 -6 498 -6q248 0 497 6v-81q-214 -24 -254 -121q-15 -36 -21.5 -100.5t-7.5 -115t-1 -173.5v-455q0 -186 -15 -289q-20 -154 -170 -282q-136 -117 -581 -259z" />
<glyph unicode="K" horiz-adv-x="1781" d="M10 1346v81q249 -6 484 -6q237 0 462 6v-81q-158 -45 -196 -93q-35 -45 -44 -162.5t-9 -377.5t9 -377t44 -162q54 -71 225 -94v-80q-246 6 -487 6q-240 0 -480 -6v80q167 30 218 94q35 45 44 162t9 377t-9 377.5t-44 162.5q-53 70 -226 93zM741 721q365 447 365 536 q0 54 -94 89v81q188 -6 370 -6q186 0 371 6v-81q-347 -54 -666 -416q399 -679 748 -862l-16 -86q-259 12 -410.5 39t-239.5 92q-229 171 -428 608z" />
<glyph unicode="L" horiz-adv-x="1517" d="M10 0v80q88 10 149 35.5t87 58.5q35 45 43 158.5t8 380.5q0 141 -1 205.5t-5.5 146t-15 123t-29.5 65.5q-59 73 -236 93v81q249 -6 498 -6t498 6v-81q-182 -21 -238 -93q-19 -24 -29.5 -65.5t-15 -123t-5.5 -146t-1 -205.5q0 -418 6 -574h12q249 0 421.5 135.5 t291.5 421.5l115 -41l-201 -655h-1352z" />
<glyph unicode="M" horiz-adv-x="2199" d="M-43 0v80q125 27 176 79t78 165q21 86 61 409q35 280 35 404q0 94 -52.5 139t-186.5 70v81q185 -6 374 -6q192 0 389 6v-47q-32 -19 -32 -65q0 -32 47 -162l241 -664q67 191 148 410t112 307.5t31 114.5q0 48 -37 51v55q194 -6 388 -6q195 0 395 6v-81 q-84 -12 -133.5 -30.5t-77 -55t-35.5 -82t-8 -123.5q0 -333 20.5 -556t44.5 -284q21 -50 79.5 -79.5t174.5 -55.5v-80q-232 8 -465 8q-126 0 -438 -8v80q62 16 100 32.5t64 35t38 48t16.5 62.5t4.5 88q0 49 -11 252t-11 358q0 71 4 197h-18q-173 -505 -420 -1159l-170 -12 q-362 910 -428 1155h-21q-1 -35 -9.5 -319t-8.5 -468q0 -131 54.5 -188.5t207.5 -81.5v-80q-190 6 -371 6q-177 0 -350 -6z" />
<glyph unicode="N" horiz-adv-x="1857" d="M12 0v80q71 14 114 32t70 50t39 70.5t21 105.5q25 174 25 719q0 129 -59 192t-210 97v81q167 -6 332 -6q166 0 330 6q39 -80 141 -204t287 -337.5t332 -400.5q-12 373 -26.5 538.5t-49.5 215.5q-53 72 -268 107v81q190 -6 376 -6t365 6v-81q-89 -21 -135.5 -47.5 t-59.5 -67.5q-51 -158 -51 -879q0 -138 8 -307l-211 -102l-714 831q-100 119 -226 248q9 -659 37 -774q28 -128 289 -168v-80q-208 6 -397 6q-187 0 -359 -6z" />
<glyph unicode="O" horiz-adv-x="1857" d="M80 711q0 160 54 286.5t169 233.5q257 239 623 239q292 0 520 -149q160 -106 246 -260t86 -334q0 -236 -140 -438q-111 -161 -294.5 -248.5t-413.5 -87.5q-381 0 -627 237q-106 103 -164.5 239t-58.5 282zM553 774q0 -219 84 -407q121 -263 321 -263q150 0 249.5 147.5 t99.5 383.5q0 153 -33.5 283t-90 217t-131 135.5t-155.5 48.5q-149 0 -246.5 -149t-97.5 -396z" />
<glyph unicode="P" horiz-adv-x="1517" d="M14 1346v81q390 19 600 19q343 0 514 -43q162 -39 251 -142.5t89 -246.5q0 -195 -162.5 -318t-480.5 -166l-30 88q213 118 213 361q0 138 -76 230t-209 114v-891q0 -117 16 -179.5t66 -98.5q54 -39 287 -74v-80q-289 6 -555 6q-265 0 -508 -6v80q169 26 223 94 q35 46 43 159.5t8 379.5q0 141 -1 205.5t-5.5 146t-15 123t-29.5 65.5q-26 32 -87.5 57.5t-150.5 35.5z" />
<glyph unicode="Q" horiz-adv-x="1857" d="M80 711q0 315 227 528q243 231 623 231q381 0 626 -239q222 -216 222 -520q0 -281 -185 -479t-499 -242q354 -253 782 -287v-92q-333 -90 -522 -90q-102 0 -189.5 27t-183.5 83q-82 49 -161 116t-155 139.5t-122 107.5q-27 21 -77.5 60t-72 56t-48.5 40t-42 40 q-114 127 -168.5 250t-54.5 271zM553 774q0 -219 84 -407q121 -263 321 -263q151 0 250 147.5t99 385.5q0 302 -121.5 492t-290.5 190q-148 0 -245 -149t-97 -396z" />
<glyph unicode="R" horiz-adv-x="1744" d="M6 1346v81q322 15 569 15q160 0 281.5 -7t227 -23.5t177.5 -45t124 -71t76 -101t24 -135.5q0 -115 -72 -195.5t-221 -134.5q275 -489 610 -678l-22 -82q-278 19 -404 49q-125 29 -188 66q-29 17 -58 43t-47.5 46.5t-48.5 55.5q-48 58 -110.5 171t-89.5 149 q-28 39 -52.5 56.5t-62.5 17.5h-6q-2 -53 -2 -144q0 -243 49 -305q57 -71 231 -94v-80q-234 6 -477 6q-244 0 -496 -6v80q170 26 224 94q35 47 44 163t9 376t-9 377.5t-44 162.5q-59 73 -236 93zM713 754q147 13 228 90t81 198q0 120 -78.5 191t-230.5 90v-569z" />
<glyph unicode="S" horiz-adv-x="1441" d="M113 621l108 20q88 -260 220 -400.5t270 -140.5q83 0 136.5 49t53.5 125q0 32 -8 58.5t-30 52t-42.5 44.5t-64 45.5t-74.5 43.5t-94.5 51.5t-104.5 57.5q-146 83 -216 178t-70 215q0 194 160 322t421 128q240 0 453 -112l-37 -455l-113 -4q-21 205 -107 321.5t-202 116.5 q-75 0 -124.5 -50.5t-49.5 -127.5q0 -40 16 -75t31.5 -57t68 -57t77.5 -49.5t108 -59.5q11 -6 16 -9q11 -6 47.5 -25.5t51.5 -27.5t46 -26.5t49.5 -31.5t43 -32t45.5 -39q109 -103 109 -281q0 -191 -157 -310.5t-427 -119.5q-155 0 -300 42t-253 116q-41 271 -57 504z" />
<glyph unicode="T" horiz-adv-x="1554" d="M0 864q42 316 66 609l92 20q18 -39 56 -54.5t105 -15.5h916q67 0 105.5 15.5t56.5 54.5l92 -20q21 -274 65 -609l-114 -20q-112 408 -453 446v-141v-406q0 -242 6.5 -365t28.5 -175q23 -54 95.5 -82.5t205.5 -40.5v-80q-270 6 -545 6q-274 0 -547 -6v80 q133 12 205.5 40.5t95.5 82.5q22 52 28.5 175t6.5 365v406v141q-339 -37 -452 -446z" />
<glyph unicode="U" horiz-adv-x="1820" d="M0 1346v81q237 -6 477 -6t486 6v-81q-205 -30 -244 -121q-17 -41 -25 -132.5t-9 -180t-1 -285.5q0 -121 10 -197.5t37 -124.5q94 -160 311 -160q181 0 260.5 105.5t79.5 331.5q0 574 -61 657q-50 67 -242 107v81q193 -6 377 -6q186 0 365 6v-81q-108 -21 -150 -48 q-48 -30 -67 -126t-31 -300q-4 -56 -8.5 -169t-8.5 -164q-11 -134 -32.5 -219t-79.5 -160q-162 -207 -526 -207q-333 0 -519 156q-83 70 -113 175t-30 279v502q0 138 -51 195t-205 86z" />
<glyph unicode="V" horiz-adv-x="1630" d="M-39 1346v81q217 -6 434 -6q221 0 439 6v-81q-199 -34 -199 -134q0 -34 13 -88t42.5 -141.5t60 -173.5t83.5 -233.5t96 -270.5q246 775 246 879q0 122 -244 162v81q202 -6 389 -6t362 6v-84q-78 -14 -128.5 -46.5t-88.5 -94.5q-68 -112 -192.5 -395t-364.5 -854l-286 59 l-396 1030q-56 142 -80 182q-49 85 -134 111q-24 7 -52 11z" />
<glyph unicode="W" horiz-adv-x="2238" d="M-47 1346v81q205 -6 401 -6q198 0 383 6v-81q-69 -17 -105 -46.5t-36 -66.5q0 -19 29.5 -111.5t88.5 -292t113 -417.5h15q45 178 198 655q-46 147 -94.5 209.5t-140.5 69.5v81q194 -6 379 -6q188 0 372 6v-81q-77 -18 -111 -46.5t-34 -78.5q0 -34 29 -133t85.5 -296.5 t102.5 -398.5h23q27 110 61 246t53 211t37.5 153t26.5 123t8 70q0 73 -41 106t-139 44v81q169 -6 340 -6q173 0 348 6v-81q-91 -18 -147.5 -48t-86.5 -81q-52 -86 -182.5 -411.5t-298.5 -823.5l-272 57q-31 120 -114 400t-126 438q-33 -101 -131.5 -404.5t-159.5 -490.5 l-266 57q-233 738 -373 1081q-22 54 -38.5 85t-43 62.5t-63.5 49.5t-90 29z" />
<glyph unicode="X" horiz-adv-x="1593" d="M-18 0v80q96 27 192.5 108.5t226.5 231.5l213 246l-303 426q-7 10 -27.5 39t-28.5 40t-28 35.5t-33 36t-36 30.5t-44.5 30t-51 23t-62.5 20v81q225 -6 451 -6q228 0 456 6v-81q-164 -35 -164 -123q0 -64 66 -164l98 -144q94 134 137 211.5t43 124.5q0 58 -133 95v81 q175 -6 334 -6q162 0 303 6v-81q-77 -25 -159 -85t-148.5 -127.5t-169.5 -183.5l-133 -149l236 -348q103 -151 143 -199q107 -126 240 -167q13 -4 26 -7v-80q-237 6 -471 6q-231 0 -459 -6v80q89 9 138 41.5t49 77.5q0 69 -107 229l-80 121l-100 -152q-102 -152 -102 -211 q0 -40 38 -69.5t105 -36.5v-80q-156 6 -322 6q-163 0 -333 -6z" />
<glyph unicode="Y" horiz-adv-x="1593" d="M-39 1346v81q225 -6 455 -6q233 0 467 6v-81q-174 -21 -174 -123q0 -17 11 -48.5t44.5 -100t58.5 -117t88 -170.5q6 -11 9 -17.5t8.5 -16.5t9.5 -18l80 205q78 204 78 268q0 117 -158 138v81q188 -6 360 -6q176 0 342 6v-81q-165 -7 -310.5 -198t-334.5 -611 q-2 -29 -2 -82q0 -177 72.5 -257.5t261.5 -117.5v-80q-270 6 -543 6q-271 0 -544 -6v80q93 21 148 39t95 47q54 37 76.5 112t22.5 201q0 61 -2 94l-248 443q-70 125 -103 168q-85 108 -228 151q-19 6 -40 11z" />
<glyph unicode="Z" horiz-adv-x="1705" d="M109 156q677 849 933 1130q-66 4 -94 4q-278 0 -443 -127t-237 -397l-112 16l67 645q299 -6 608 -6q311 0 637 6l68 -131q-452 -606 -952 -1140q29 -2 84 -2q364 0 550.5 144t256.5 482l116 -16q-15 -376 -139 -764q-398 23 -659 23q-170 0 -623 -23z" />
<glyph unicode="[" horiz-adv-x="1071" d="M334 -498q14 454 14 967q0 516 -14 967h674v-99l-342 -43q-13 -445 -13 -825q0 -376 13 -825l342 -41v-101h-674z" />
<glyph unicode="\" horiz-adv-x="681" d="M-14 1366l202 55q227 -888 508 -1845l-200 -61q-238 950 -510 1851z" />
<glyph unicode="]" horiz-adv-x="1071" d="M72 -397l340 41q12 414 12 825q0 414 -12 825l-340 43v99h671q-14 -564 -14 -967q0 -400 14 -967h-671v101z" />
<glyph unicode="^" horiz-adv-x="2048" d="M412 897l467 565h288l465 -565h-131l-479 315l-477 -315h-133z" />
<glyph unicode="_" horiz-adv-x="1024" d="M0 -201h1024v-282h-1024v282z" />
<glyph unicode="`" horiz-adv-x="1024" d="M152 1434l176 147l274 -496l-70 -45z" />
<glyph unicode="a" horiz-adv-x="1099" d="M51 233q0 57 21 113l503 203q0 8 1.5 23t1.5 22q0 227 -156 227q-15 0 -22.5 -4t-11.5 -17.5t-4.5 -26.5t-0.5 -44q0 -55 2 -104q-188 -27 -262 -27q-60 0 -60 43q0 45 113 135q127 103 234 153t215 50q147 0 228 -90.5t81 -261.5q0 -32 -4 -125t-4 -154q0 -32 2 -52.5 t10 -40.5t18.5 -32t34 -27.5t49 -28t70.5 -32.5v-65q-136 -49 -220.5 -72t-144.5 -23q-98 0 -149 97q-168 -103 -289 -103q-116 0 -186 72t-70 192zM422 291q0 -85 35.5 -124.5t111.5 -39.5h6v340l-149 -119q-4 -40 -4 -57z" />
<glyph unicode="b" horiz-adv-x="1290" d="M-39 1251v68l475 199l78 -66l-12 -590q140 119 289 119q190 0 319 -135.5t129 -337.5q0 -110 -50.5 -208.5t-138.5 -170.5t-215 -114t-274 -42q-257 0 -440 103v981q0 70 -28.5 104t-131.5 90zM500 442q0 -186 37.5 -270t136.5 -84q77 0 121.5 66t44.5 186q0 182 -96 313 t-244 150v-361z" />
<glyph unicode="c" horiz-adv-x="1024" d="M55 442q0 242 203 408q156 129 381 129q139 0 223 -59t84 -148q0 -73 -56.5 -128.5t-131.5 -55.5q-95 0 -187 106q-16 18 -39 46t-34 40.5t-25.5 22.5t-28.5 10q-25 0 -43 -33.5t-18 -89.5q0 -213 97 -333.5t259 -120.5q110 0 201 71l57 -57q-202 -275 -471 -275 q-211 0 -341 128.5t-130 338.5z" />
<glyph unicode="d" horiz-adv-x="1366" d="M61 446q0 236 159 378.5t429 142.5q73 0 146 -11q0 18 1 45t1 37q0 58 -17 78q-44 52 -153 125v62l475 215l63 -66v-1137q0 -76 45 -100.5t174 -32.5v-78q-289 -64 -591 -147l10 137q-108 -123 -289 -123q-200 0 -326.5 131t-126.5 344zM442 610q0 -193 98.5 -323.5 t239.5 -130.5h15v278q0 213 -47.5 318.5t-149.5 105.5q-70 0 -113 -66t-43 -182z" />
<glyph unicode="e" d="M55 444q0 112 41 211.5t112 171t171 113t213 41.5q189 0 290 -108.5t101 -311.5v-22h-590q23 -135 120 -220.5t224 -85.5q133 0 224 113l71 -55q-107 -161 -228.5 -237.5t-275.5 -76.5q-207 0 -340 131.5t-133 335.5zM385 651l266 8v11q0 192 -119 192 q-67 0 -105.5 -54.5t-41.5 -156.5z" />
<glyph unicode="f" horiz-adv-x="872" d="M16 786v91l193 96q22 262 171.5 406.5t393.5 144.5q147 0 234.5 -55t87.5 -142q0 -77 -58 -131.5t-143 -54.5q-23 0 -53 6q-70 124 -113 177.5t-82 53.5q-35 0 -50 -36t-15 -111v-74v-219h276v-152h-266v-487q0 -79 8.5 -118.5t32.5 -49.5q66 -28 225 -51v-80 q-300 4 -432 4q-143 0 -397 -4v80q112 20 147 47q21 16 27 46t6 93v53v467h-193z" />
<glyph unicode="g" horiz-adv-x="1251" d="M70 -356q0 78 59 134t186 107v19q-109 24 -166 73.5t-57 116.5q0 43 60.5 88.5t187.5 102.5v26q-240 71 -240 322q0 154 129 251t346 97q164 0 297 -61h361v-148l-232 6q35 -75 35 -141q0 -162 -130.5 -262.5t-354.5 -100.5q-33 0 -125 15q-8 -32 -8 -41q0 -49 56 -61.5 t206 -12.5h231q155 0 242.5 -69t87.5 -187q0 -207 -246 -354q-253 -150 -534 -150q-193 0 -292 59.5t-99 170.5zM418 -184q0 -116 76.5 -185t203.5 -69q105 0 171.5 54.5t66.5 139.5q0 72 -39 105t-121 33q-72 0 -159.5 -2.5t-102.5 -2.5q-41 0 -88 2q-8 -36 -8 -75z M467 690q0 -151 33 -233t90 -82q46 0 71 48t25 140q0 152 -33 231.5t-92 79.5q-45 0 -69.5 -47t-24.5 -137z" />
<glyph unicode="h" horiz-adv-x="1366" d="M0 1241v80l485 197l72 -50v-616q186 129 334 129q153 0 228 -94t75 -285v-321q0 -54 3.5 -80.5t20 -52t48 -39.5t90.5 -29v-80q-212 4 -318 4q-107 0 -319 -4v80q60 22 76 54.5t16 103.5v43v231q0 140 -58 202t-194 62v-495v-48q0 -65 19 -96t88 -57v-80q-208 4 -316 4 q-105 0 -317 -4v80q28 5 49 10t37 14t26.5 15t18 20.5t11 24t5 32t2 37t0.5 45.5v3v667q0 145 -12 182q-8 29 -47.5 53t-122.5 58z" />
<glyph unicode="i" horiz-adv-x="757" d="M29 0v80q40 6 66.5 12.5t44.5 18t28 21.5t15 31t6 39t1 52v27v260q0 63 -28 96t-119 92v82l469 184l68 -61q-11 -166 -11 -379v-274v-35q0 -46 3.5 -68.5t19 -44.5t47.5 -33t90 -20v-80q-234 4 -350 4t-350 -4zM150 1264q0 92 62.5 154.5t154.5 62.5t155.5 -62.5 t63.5 -154.5q0 -91 -64 -155.5t-155 -64.5q-90 0 -153.5 64.5t-63.5 155.5z" />
<glyph unicode="j" horiz-adv-x="720" d="M-102 -485q66 28 113 60.5t79 76t51 87.5t29 110.5t13 128.5t3 157v363q0 41 -2.5 63.5t-12 48t-30 44t-54 39t-87.5 44.5v76l502 182l71 -65q-10 -127 -10 -187q0 -88 6 -269t6 -275q0 -205 -14 -310q-20 -135 -135 -247q-64 -62 -189 -121.5t-303 -104.5zM150 1264 q0 92 62.5 154.5t154.5 62.5t155.5 -62.5t63.5 -154.5q0 -91 -64 -155.5t-155 -64.5q-90 0 -153.5 64.5t-63.5 155.5z" />
<glyph unicode="k" horiz-adv-x="1327" d="M0 1241v80l498 197l55 -58q-4 -109 -4 -319v-201v-659v-21q0 -42 1.5 -62.5t8 -43t22 -33.5t40 -21.5t65.5 -19.5v-80q-222 4 -330 4q-109 0 -327 -4v80q48 11 75.5 23t41 32.5t17 41.5t3.5 61v43v731q0 108 -12 129q-10 20 -40.5 39t-97.5 53q-11 5 -16 8zM575 483v25 l146 176q63 74 63 102q0 20 -31.5 40.5t-90.5 37.5v82q292 7 651 27v-82q-168 -56 -276.5 -102t-182.5 -99q144 -248 265.5 -395t246.5 -209v-82q-174 -16 -252 -16q-192 0 -314.5 115.5t-224.5 379.5z" />
<glyph unicode="l" horiz-adv-x="757" d="M10 1241v80l496 197l57 -58q-4 -109 -4 -319v-201v-659v-11q0 -40 1 -59t5.5 -43t13.5 -34t27 -22.5t43.5 -19t65.5 -12.5v-80q-226 4 -340 4q-112 0 -346 -4v80q32 6 54 13t38.5 13.5t26.5 19.5t16 23t8.5 32t3 38.5t0.5 50.5v11v741q0 99 -12 119q-11 20 -44.5 40.5 t-109.5 59.5z" />
<glyph unicode="m" horiz-adv-x="1972" d="M33 0v80q32 6 54 13t38.5 14t26.5 21t16 24.5t8.5 34t3 41t0.5 53.5v229q0 44 -3 67t-18.5 49.5t-44 48.5t-81.5 54v82l471 184l55 -57l-29 -94q174 137 344 137q172 0 263 -137q104 70 188 103.5t168 33.5q153 0 228 -94t75 -285v-346q0 -93 27 -123t135 -53v-80 q-208 4 -311 4q-106 0 -314 -4v80q58 20 74 53.5t16 108.5v270q0 138 -57.5 201t-187.5 63h-13q13 -89 13 -174v-354q0 -36 1 -51.5t5.5 -38t15 -34t29.5 -23.5t49 -21v-80q-188 4 -283 4q-96 0 -284 -4v80q26 9 43 21t26 23.5t13.5 33.5t5 37.5t0.5 50.5v266 q0 136 -56.5 199.5t-183.5 64.5v-532v-11q0 -31 1 -46.5t6 -35t15.5 -30.5t29.5 -21.5t48 -19.5v-80q-204 4 -309 4t-317 -4z" />
<glyph unicode="n" horiz-adv-x="1366" d="M33 0v80q32 6 54 13t38.5 14t26.5 21t16 24.5t8.5 34t3 41t0.5 53.5v237q0 77 -26 115.5t-121 95.5v82l471 184l55 -57l-20 -94q105 69 188 103t162 34q155 0 230 -94t75 -285v-321q0 -54 3.5 -80.5t20 -52t48 -39.5t90.5 -29v-80q-212 4 -318 4q-107 0 -319 -4v80 q32 11 51 25.5t28 38t11 46t2 64.5v27v231q0 137 -58 200.5t-188 63.5h-6v-495v-23q0 -81 18 -116.5t89 -61.5v-80q-208 4 -316 4q-105 0 -317 -4z" />
<glyph unicode="o" horiz-adv-x="1251" d="M51 477q0 229 157 366.5t419 137.5t417.5 -137.5t155.5 -366.5t-155.5 -367.5t-417.5 -138.5t-419 138.5t-157 367.5zM469 477q0 -204 36 -298.5t122 -94.5q85 0 122 87t37 273q0 222 -36.5 324t-122.5 102t-122 -94.5t-36 -298.5z" />
<glyph unicode="p" horiz-adv-x="1327" d="M-10 721v74l477 204l63 -51l-12 -117l10 -4q75 81 148 117.5t164 36.5q111 0 207.5 -61t155.5 -168.5t59 -235.5q0 -112 -47.5 -210t-133.5 -170t-213.5 -113t-279.5 -41h-37v-205q0 -103 6.5 -148.5t30.5 -64.5q31 -24 88 -38t164 -30v-80q-262 4 -406 4q-136 0 -430 -4 v80q116 21 150 80q12 20 12 201v686q0 117 -10 135q-13 23 -51.5 50.5t-114.5 72.5zM551 424q0 -318 166 -318q71 0 110 62t39 180q0 190 -87 308t-228 124v-356z" />
<glyph unicode="q" horiz-adv-x="1327" d="M57 436q0 244 156.5 393.5t415.5 149.5q186 0 340 -80l92 107h100q-8 -100 -8 -289v-940q0 -22 -1 -57.5t-1 -49.5q0 -48 8.5 -79t32.5 -54q38 -38 123 -41v-80q-294 4 -428 4q-140 0 -398 -4v80q197 19 246 60q28 23 37.5 53.5t9.5 77.5q0 13 -1 43t-1 47v280 q-124 -77 -270 -77q-203 0 -328 125.5t-125 330.5zM434 627q0 -192 93 -328.5t253 -177.5v366q0 373 -184 373q-74 0 -118 -62t-44 -171z" />
<glyph unicode="r" d="M20 733v62l488 202l67 -65l-71 -225l31 -19q111 146 197.5 217.5t156.5 71.5q79 0 127.5 -49t48.5 -127q0 -141 -217 -307q-99 129 -285 135v-361q0 -40 3 -65t15.5 -46t27.5 -31.5t50 -20t70.5 -14.5t101.5 -11v-80q-242 4 -380 4q-126 0 -416 -4v80q101 19 125 44 t24 109v265q0 68 -10 101.5t-43.5 63.5t-110.5 70z" />
<glyph unicode="s" horiz-adv-x="1005" d="M98 379l119 10q89 -323 250 -323q49 0 81 29t32 73q0 36 -13 64t-46.5 53.5t-64.5 42.5t-94 47q-67 33 -107 58t-75 61t-50 82.5t-15 109.5q0 134 103 214.5t286 80.5q191 0 356 -76v-280h-108q-88 252 -211 252q-41 0 -69 -29t-28 -72q0 -50 33 -86t109 -82 q149 -93 175 -112q98 -71 124 -149q12 -38 12 -83q0 -137 -112 -221t-302 -84q-175 0 -360 90z" />
<glyph unicode="t" horiz-adv-x="909" d="M12 786v62l477 420h70v-330h342v-152h-342v-399q0 -129 58 -175t217 -46h55l4 -84q-277 -121 -465 -121q-141 0 -193.5 76t-52.5 256v493h-170z" />
<glyph unicode="u" horiz-adv-x="1366" d="M0 844v76l545 61v-561q0 -137 58 -199.5t188 -62.5h6v487q0 41 -1.5 65t-7.5 49t-17.5 37.5t-32 24t-50 16.5t-72.5 7v76l560 61v-571q0 -49 1 -75.5t6.5 -55.5t15.5 -42t28.5 -25t45 -15.5t66.5 -3.5h31l12 -82l-585 -144l20 135q-101 -67 -183 -99t-169 -32 q-155 0 -229 94t-74 285v295q0 48 -2 73.5t-10.5 52t-26 39t-47 21.5t-76.5 13z" />
<glyph unicode="v" d="M-66 872v80q111 -2 336 -2q227 0 342 2v-80q-118 -43 -118 -86q0 -23 19.5 -76.5t69 -177.5t87.5 -225q108 366 108 463q0 39 -25.5 57.5t-97.5 44.5v80q82 -2 240 -2q155 0 229 2v-80q-92 -24 -129 -79q-92 -141 -364 -822l-242 56q-85 222 -118 307.5t-81 208t-71 174 t-37 74.5q-33 54 -148 81z" />
<glyph unicode="w" horiz-adv-x="1705" d="M-53 872v80q111 -2 334 -2q227 0 342 2q111 -2 319 -2q205 0 303 2v-80q-98 -27 -98 -88q0 -17 18 -66t61 -160.5t79 -213.5q116 366 116 436q0 28 -28.5 48.5t-92.5 43.5v80q80 -2 234 -2q151 0 225 2v-80q-89 -29 -129 -90q-47 -76 -323 -716q-27 -63 -41 -95l-199 56 l-215 526l-246 -582l-205 56l-235 626q-37 103 -84 153t-135 66zM502 780q0 -14 17.5 -61.5t56.5 -152t73 -208.5l125 347q-30 78 -65 118t-86 49q-121 -38 -121 -92z" />
<glyph unicode="x" horiz-adv-x="1214" d="M-31 0v80q93 14 178 73.5t215 182.5l91 86l-136 162q-19 23 -59 71t-57 67.5t-49 52.5t-53.5 47.5t-52 29t-62.5 20.5v80q117 -2 348 -2q229 0 342 2v-80q-36 -7 -56 -25t-20 -42q0 -58 104 -189q93 151 93 191q0 36 -68 65v80q88 -2 254 -2q160 0 236 2v-80 q-127 -31 -231 -110.5t-220 -222.5q68 -90 105.5 -138t88 -110.5t81.5 -93.5t68.5 -62t67.5 -43t60 -12v-80q-238 4 -346 4q-116 0 -320 -4v80q39 0 60.5 15.5t21.5 39.5q0 11 -7.5 28t-28 49t-37.5 57t-56 81q-116 -155 -116 -205q0 -44 104 -65v-80q-192 4 -283 4 q-92 0 -260 -4z" />
<glyph unicode="y" d="M-80 872v80q115 -2 340 -2q227 0 340 2v-80q-56 -10 -86.5 -33t-30.5 -53q0 -59 195 -467q82 324 82 447q0 42 -24 63.5t-89 42.5v80q82 -2 238 -2q151 0 223 2v-80q-111 -38 -147 -108q-8 -15 -42.5 -101t-110.5 -273.5t-159 -385.5q-52 -124 -93 -210t-86 -162 t-86.5 -120.5t-89 -70t-99.5 -25.5q-87 0 -146 59t-59 152q0 91 63 153.5t170 72.5q59 -132 113 -132q50 0 156 177l-363 743q-49 102 -69 131q-49 71 -140 100z" />
<glyph unicode="z" horiz-adv-x="1175" d="M63 70q286 457 533 768q-8 0 -23 1t-22 1q-164 0 -250 -82.5t-123 -270.5l-78 11l33 454q225 -6 449 -6q225 0 450 6l33 -57q-357 -533 -557 -786q8 0 23.5 -1.5t23.5 -1.5q182 0 297 96.5t178 297.5l88 -15q-38 -294 -96 -487q-141 10 -375 10q-388 0 -541 -14z" />
<glyph unicode="{" horiz-adv-x="1024" d="M178 590v90q153 15 204.5 81t51.5 232v176q0 102 19.5 166.5t69.5 106t129 58t204 16.5v-72q-57 -1 -91.5 -15.5t-52.5 -49t-24 -78.5t-6 -119v-125q0 -82 -3.5 -134t-16 -104.5t-36 -84t-63 -57.5t-98.5 -42q59 -16 98.5 -42t63 -57.5t36 -83t16 -103.5t3.5 -134v-127 q0 -75 6 -119t24 -78.5t52.5 -49t91.5 -15.5v-70q-125 0 -204 16t-129 56.5t-69.5 105t-19.5 166.5v176q0 166 -51.5 232.5t-204.5 81.5z" />
<glyph unicode="|" horiz-adv-x="1024" d="M373 -483v2048h280v-2048h-280z" />
<glyph unicode="}" horiz-adv-x="1024" d="M168 -174q108 3 141 59.5t33 202.5v127q0 82 3.5 134t16 103.5t36 83t63 57.5t98.5 42q-59 16 -98.5 42t-63 57.5t-36 84t-16 104.5t-3.5 134v125q0 146 -33 202.5t-141 59.5v72q243 0 332.5 -73.5t89.5 -273.5v-176q0 -166 51.5 -232t204.5 -81v-90 q-153 -15 -204.5 -81.5t-51.5 -232.5v-176q0 -136 -39 -209t-128 -104t-255 -31v70z" />
<glyph unicode="~" horiz-adv-x="1705" d="M178 379v299q225 143 408 143q114 0 278 -53q19 -6 71.5 -24.5t78.5 -26.5t69 -16.5t80 -8.5q166 0 367 150v-299q-198 -133 -371 -133q-105 0 -266 57q-66 23 -106.5 35t-104 23.5t-121.5 11.5q-161 0 -383 -158z" />
<glyph unicode="&#xa1;" horiz-adv-x="833" d="M199 217q0 85 39.5 252t126.5 471q36 -4 53 -4q21 0 53 4q164 -572 164 -717q0 -123 -57.5 -187.5t-165.5 -64.5q-100 0 -156.5 64.5t-56.5 181.5zM199 1221q0 91 63 155t154 64t155 -64t64 -155q0 -92 -63.5 -156t-155.5 -64t-154.5 63.5t-62.5 156.5z" />
<glyph unicode="&#xa2;" horiz-adv-x="1290" d="M74 465q0 217 155.5 350t434.5 146l-5 188h113l-4 -184q136 -9 295 -60l12 -321l-94 -9q-36 140 -87.5 210.5t-125.5 76.5v-760q88 18 150 87t120 200l86 -29l-67 -303q-130 -52 -289 -65l6 -221h-117l7 219h-19q-270 0 -420.5 127t-150.5 348zM471 487q0 -173 53 -274.5 t140 -110.5v754q-193 -55 -193 -369z" />
<glyph unicode="&#xa3;" horiz-adv-x="1488" d="M-90 88q0 123 149 123q54 0 209 -29q50 57 72.5 150t30.5 241l-205 21l24 102l195 15q44 374 210 564.5t445 190.5q169 0 268 -76t99 -200q0 -92 -61.5 -150.5t-155.5 -58.5q-65 0 -111.5 31.5t-68.5 89.5q77 95 77 174q0 35 -21.5 58.5t-55.5 23.5q-35 0 -62 -16.5 t-49.5 -55t-39.5 -85.5t-34 -127t-30 -158.5t-31 -198.5l303 -21l-18 -106l-308 -8q-36 -160 -118.5 -257t-204.5 -128l4 -33q31 4 92 4q106 0 197 -23q71 -17 168.5 -44.5t154 -40.5t94.5 -13q47 0 77 23t30 57q0 19 -8.5 34.5t-17.5 23.5t-29 22.5t-31 23.5 q-66 57 -66 134q0 70 47.5 113.5t122.5 43.5q80 0 124 -53t44 -152q0 -91 -45 -185t-133 -177q-81 -78 -169 -113t-197 -35q-58 0 -117 10.5t-126.5 35t-116 45t-136 60t-135.5 60.5q-107 -55 -189 -55q-67 0 -107 34.5t-40 90.5z" />
<glyph unicode="&#xa4;" horiz-adv-x="1241" d="M51 453l199 202q-64 100 -64 232q0 126 64 227l-199 205l135 133l201 -199q101 68 234 68q136 0 237 -68l201 199l133 -133l-199 -205q64 -104 64 -229q0 -126 -64 -230l199 -202l-133 -136l-201 201q-103 -69 -235 -69q-133 0 -236 69l-201 -201zM381 885 q0 -99 70.5 -170.5t171.5 -71.5q99 0 170 71.5t71 170.5q0 98 -71.5 169.5t-169.5 71.5q-99 0 -170.5 -71t-71.5 -170z" />
<glyph unicode="&#xa5;" horiz-adv-x="1640" d="M-16 559v127q156 -6 344 -6q141 0 215 2l-103 184q-30 0 -88 1t-86 1q-147 0 -282 -6v127q172 -4 276 -4h109l-15 31q-64 142 -151 221t-219 109v81q225 -6 454 -6q231 0 465 6v-81q-174 -21 -174 -123q0 -8 3 -20t10 -30.5t14.5 -36t22 -46.5t26 -52.5t32 -63.5t36 -70 t42.5 -81t46 -88l79 205q78 204 78 268q0 117 -157 138v81q185 -6 360 -6t342 6v-81q-114 -13 -195 -75t-161 -186l-64 -100q25 0 77 -1t77 -1q134 0 266 6v-127q-123 6 -287 6q-30 0 -97.5 -1t-104.5 -1l-91 -184q84 -2 236 -2q200 0 344 6v-127q-170 6 -385 6 q-164 0 -252 -2l-8 -26q-2 -29 -2 -82q0 -177 72.5 -257.5t261.5 -117.5v-80q-270 6 -543 6q-272 0 -545 -6v80q94 21 149 39t95 47q55 38 76.5 116.5t21.5 215.5v65q-80 2 -233 2q-205 0 -387 -6z" />
<glyph unicode="&#xa6;" horiz-adv-x="1024" d="M373 -350v758h280v-758h-280zM373 674v758h280v-758h-280z" />
<glyph unicode="&#xa7;" horiz-adv-x="1251" d="M76 -51q0 80 52.5 131t135.5 51q80 0 130 -48t50 -126q0 -50 -36 -129q30 -6 59 -6q77 0 123.5 42t46.5 107q0 31 -12 63t-26.5 56t-50.5 63.5t-57.5 60.5t-74.5 71q-13 12 -19 18q-58 55 -87.5 85t-73 77.5t-65.5 82.5t-45 81t-32.5 94t-9.5 102q0 122 65 244t185 217 q200 162 477 162q155 0 242.5 -61.5t87.5 -163.5q0 -75 -54.5 -127t-136.5 -52q-81 0 -133.5 46.5t-52.5 117.5q0 83 65 142q-14 2 -41 2q-86 0 -130 -35.5t-44 -102.5q0 -58 35 -112.5t111 -132.5q26 -27 87.5 -84t113 -110.5t94.5 -110.5q90 -121 90 -281 q0 -129 -75 -267.5t-210 -246.5q-191 -152 -442 -152q-160 0 -251 63.5t-91 168.5zM307 944q0 -56 17.5 -108.5t57 -109t81 -104.5t112.5 -120q45 -46 65.5 -68.5t55 -62t50.5 -66.5t34.5 -65t25.5 -76t7 -80q0 -65 -29 -150q148 168 148 328q0 38 -7 72.5t-26.5 71.5 t-34.5 63t-52 68.5t-57 64.5t-71 75t-74 77q-102 107 -149 185t-47 161q0 79 45 168q-152 -165 -152 -324z" />
<glyph unicode="&#xa8;" horiz-adv-x="1024" d="M111 1280q0 74 46 120t117 46q72 0 120 -47t48 -115q0 -70 -45.5 -117t-115.5 -47q-74 0 -122 47t-48 113zM582 1280q0 73 45 119.5t118 46.5q70 0 119 -47t49 -115q0 -70 -45.5 -117t-115.5 -47q-74 0 -122 47t-48 113z" />
<glyph unicode="&#xa9;" horiz-adv-x="1683" d="M84 678q0 151 57 289t164 247q106 107 246.5 165.5t292.5 58.5q148 0 287 -57.5t245 -163.5q106 -104 164.5 -246t58.5 -293q0 -150 -57.5 -288.5t-165.5 -248.5q-106 -107 -243 -164t-291 -57q-311 0 -535 221q-109 107 -166 245t-57 292zM207 678q0 -266 186 -449 q187 -184 449 -184q260 0 444 184q91 92 140 209t49 240q0 126 -49 244t-138 206t-206 136.5t-240 48.5q-128 0 -245 -48.5t-206 -138.5q-184 -187 -184 -448zM393 672q0 190 127.5 315t321.5 125q64 0 115.5 -16.5t81 -32.5t40.5 -16q21 0 32 14t19 47h54l6 -336h-57 q-34 133 -101.5 201.5t-161.5 68.5q-208 0 -208 -358q0 -182 59 -277.5t168 -95.5q145 0 262 176l55 -34q-133 -222 -366 -222q-192 0 -319.5 126t-127.5 315z" />
<glyph unicode="&#xaa;" horiz-adv-x="825" d="M39 924q0 42 14 77l379 144q0 5 1 15.5t1 15.5q0 159 -117 159q-21 0 -25.5 -12t-4.5 -49v-4q0 -39 2 -74q-134 -18 -197 -18q-45 0 -45 30q0 31 86 95q95 72 175 107.5t161 35.5q109 0 170 -64t61 -184q0 -22 -3 -87t-3 -107q0 -62 23.5 -86.5t116.5 -63.5v-45 q-195 -66 -275 -66q-73 0 -113 66q-122 -70 -215 -70q-88 0 -140 50t-52 135zM317 963q0 -59 26.5 -87t84.5 -28h4v239l-113 -83q-2 -14 -2 -41z" />
<glyph unicode="&#xab;" horiz-adv-x="1038" d="M35 457v57q214 129 438 360l55 -32q-65 -177 -221 -357q163 -187 221 -360l-55 -35q-191 214 -438 367zM479 457v57q217 130 439 360l55 -32q-65 -177 -221 -357q164 -187 221 -360l-55 -35q-189 213 -439 367z" />
<glyph unicode="&#xac;" horiz-adv-x="1705" d="M254 602v266h1198v-501h-272v235h-926z" />
<glyph unicode="&#xad;" horiz-adv-x="872" d="M123 356v332h627v-332h-627z" />
<glyph unicode="&#xae;" horiz-adv-x="1683" d="M84 678q0 151 57 289t164 247q106 107 245.5 165.5t291.5 58.5q154 0 299 -62.5t252 -175.5q97 -103 151.5 -240t54.5 -282q0 -244 -145 -445q-107 -149 -267.5 -231t-346.5 -82q-228 0 -416 125q-162 107 -251 273t-89 360zM207 678q0 -266 186 -449q187 -184 447 -184 q262 0 446 184q91 92 140 209t49 240q0 126 -49 244t-138 206t-206 136.5t-240 48.5q-128 0 -245 -48.5t-206 -138.5q-184 -187 -184 -448zM461 279v59q50 5 69 23.5t19 64.5v528q0 45 -18 62.5t-70 23.5v62h409q152 0 241 -57.5t89 -145.5q0 -90 -65.5 -139.5t-206.5 -71.5 q112 -17 170.5 -78t58.5 -161v-48q0 -59 35 -59q51 0 51 119v12h62v-33q0 -89 -49 -135.5t-144 -46.5q-37 0 -64.5 5t-46.5 12.5t-32.5 24t-21 30.5t-12 41.5t-6.5 48t-4 59.5q-1 11 -1 17q-6 90 -35.5 131t-91.5 41h-11v-242q0 -43 15 -61t59 -27v-59h-399zM786 729 q12 -2 33 -2q146 0 146 170q0 64 -32 103.5t-85 39.5q-62 0 -62 -59v-252z" />
<glyph unicode="&#xaf;" horiz-adv-x="1024" d="M168 1194v166h684v-166h-684z" />
<glyph unicode="&#xb0;" horiz-adv-x="673" d="M14 1149q0 134 95.5 229t228.5 95q134 0 227.5 -94.5t93.5 -229.5q0 -131 -94.5 -226.5t-228.5 -95.5t-228 93.5t-94 228.5zM186 1151q0 -64 44 -109t108 -45q62 0 106.5 46t44.5 108t-45 107t-108 45q-62 0 -106 -44.5t-44 -107.5z" />
<glyph unicode="&#xb1;" horiz-adv-x="1705" d="M254 -41v272h1198v-272h-1198zM254 680v272h459v310h280v-310h459v-272h-459v-309h-280v309h-459z" />
<glyph unicode="&#xb2;" horiz-adv-x="851" d="M2 625q234 159 347.5 287t113.5 243q0 67 -41.5 106t-110.5 39q-107 0 -211 -116l-51 33q131 237 365 237q135 0 219 -72t84 -186q0 -121 -106.5 -223t-334.5 -209l5 -8h229q131 0 172 20q36 18 92 105l51 -23l-116 -287q-212 9 -353 9q-158 0 -333 -9z" />
<glyph unicode="&#xb3;" horiz-adv-x="851" d="M45 727q0 45 32.5 72.5t88.5 27.5q72 0 127 -49q-17 -39 -17 -57q0 -41 34 -70.5t81 -29.5q58 0 95.5 40t37.5 105q0 88 -58 136t-165 48q-49 0 -111 -12l-28 43l106 78q112 15 163.5 49t51.5 96q0 54 -39 85.5t-108 31.5q-117 0 -221 -94l-37 37q138 190 375 190 q126 0 203 -52.5t77 -135.5q0 -142 -229 -183l2 -16q122 -10 191 -74t69 -162q0 -124 -108.5 -202t-288.5 -78q-148 0 -236 50.5t-88 125.5z" />
<glyph unicode="&#xb4;" horiz-adv-x="1024" d="M424 1090l268 491l182 -156l-387 -383z" />
<glyph unicode="&#xb5;" horiz-adv-x="1269" d="M-72 -285q0 42 27 130.5t72.5 239t76.5 294.5l107 506h336l-117 -543q-14 -63 -14 -111q0 -49 24 -74.5t66 -25.5q58 0 92 53.5t61 177.5l115 523h334l-111 -514q-8 -39 -8 -74q0 -43 20.5 -66.5t57.5 -23.5q26 0 46.5 13.5t30.5 27t30 47.5q12 21 19 30.5t18 17t26 7.5 t25 -12t10 -29q0 -19 -13.5 -65t-39.5 -94q-95 -173 -254 -173q-89 0 -138 49.5t-55 145.5q-81 -190 -276 -190q-99 0 -159 48.5t-69 135.5q-18 -114 -32 -255t-17 -163q-14 -98 -46 -137t-107 -39q-63 0 -100.5 38.5t-37.5 104.5z" />
<glyph unicode="&#xb6;" horiz-adv-x="1024" d="M10 1130q0 156 105.5 252.5t283.5 96.5h615v-142h-101v-1337h-202v1337h-140v-1337h-202v784q-164 7 -261.5 102.5t-97.5 243.5z" />
<glyph unicode="&#xb7;" horiz-adv-x="645" d="M115 717q0 88 60.5 147.5t148.5 59.5t147 -59.5t59 -147.5q0 -87 -60 -148t-146 -61q-88 0 -148.5 60.5t-60.5 148.5z" />
<glyph unicode="&#xb8;" horiz-adv-x="1024" d="M256 -446q0 40 25 65t63 25q43 0 82 -31q14 -12 33 -34t32 -33t29 -11q39 0 39 39q0 10 -4 20t-15.5 23t-20.5 22t-30.5 28.5t-33.5 31.5q-60 57 -60 108q0 95 185 205l172 15q-100 -38 -142.5 -68t-42.5 -70q0 -11 4 -21t14.5 -23.5t18.5 -22t27.5 -28l30.5 -30.5 q63 -66 63 -116q0 -78 -93.5 -150.5t-209.5 -72.5q-77 0 -121.5 35.5t-44.5 93.5z" />
<glyph unicode="&#xb9;" horiz-adv-x="851" d="M117 571v47q135 15 176 62q22 28 27.5 88t5.5 195q0 147 -3.5 219t-17.5 108q-25 63 -188 90v50h112q236 0 357 4q-15 -270 -15 -441v-63q0 -113 6 -169t27 -81q38 -44 170 -62v-47q-218 4 -328 4q-107 0 -329 -4z" />
<glyph unicode="&#xba;" horiz-adv-x="937" d="M39 1094q0 160 117 256t315 96q196 0 313 -96t117 -256t-117 -257.5t-313 -97.5q-197 0 -314.5 97.5t-117.5 257.5zM352 1094q0 -143 27 -209t92 -66q63 0 91 61t28 191q0 155 -27.5 226t-91.5 71q-65 0 -92 -65.5t-27 -208.5z" />
<glyph unicode="&#xbb;" horiz-adv-x="1038" d="M68 125q67 178 221 354q-162 186 -221 363l53 32q189 -212 438 -366v-55q-207 -124 -438 -363zM512 125q67 178 221 354q-162 186 -221 363l53 32q187 -211 439 -366v-55q-210 -126 -439 -363z" />
<glyph unicode="&#xbc;" horiz-adv-x="1968" d="M113 629v45q129 12 168 57q12 13 19 33.5t9.5 62t3 69t0.5 97.5q0 98 -0.5 142.5t-5 92.5t-14.5 72q-27 60 -180 84v46h108q223 0 340 4q-14 -235 -14 -412v-59q0 -105 6 -156.5t27 -75.5q36 -42 161 -57v-45q-208 4 -313 4q-103 0 -315 -4zM471 -16q461 773 846 1534 l182 -84q-460 -696 -852 -1530zM1161 283l522 555l109 -43q-14 -88 -14 -228v-229h184v-121h-184v-20q0 -73 41.5 -106.5t142.5 -45.5v-45q-200 4 -303 4q-101 0 -297 -4v45q104 11 150.5 45t46.5 105q0 4 -1.5 11t-1.5 11h-45q-142 0 -309 -10zM1296 332l7 -8q57 14 133 14 h120v260l-8 2q-84 -117 -252 -268z" />
<glyph unicode="&#xbd;" horiz-adv-x="1968" d="M113 629v45q129 12 168 57q12 13 19 33.5t9.5 62t3 69t0.5 97.5q0 98 -0.5 142.5t-5 92.5t-14.5 72q-27 60 -180 84v46h108q223 0 340 4q-14 -235 -14 -412v-59q0 -105 6 -156.5t27 -75.5q36 -42 161 -57v-45q-208 4 -313 4q-103 0 -315 -4zM471 -16q461 773 846 1534 l182 -84q-460 -696 -852 -1530zM1157 49q223 147 331.5 268t108.5 228q0 63 -39 100t-104 37q-104 0 -203 -111l-49 31q125 221 348 221q129 0 210 -67t81 -174q0 -113 -102.5 -208t-319.5 -196l4 -6h219q124 0 164 18q36 19 88 99l48 -21l-111 -268q-180 8 -336 8 q-168 0 -319 -8z" />
<glyph unicode="&#xbe;" horiz-adv-x="1968" d="M43 774q0 42 31 67t84 25q68 0 123 -43q-17 -39 -17 -55q0 -39 32 -66.5t79 -27.5q53 0 89 38t36 97q0 83 -55 127.5t-158 44.5q-56 0 -105 -10l-28 39l102 73q107 15 157 47t50 89q0 51 -39 80.5t-105 29.5q-111 0 -208 -90l-35 35q129 178 356 178q120 0 194 -49.5 t74 -126.5q0 -130 -221 -168l4 -16q116 -10 182 -69.5t66 -150.5q0 -116 -104.5 -189t-276.5 -73q-141 0 -224 47t-83 117zM471 -16q461 773 846 1534l182 -84q-460 -696 -852 -1530zM1161 283l522 555l109 -43q-14 -88 -14 -228v-229h184v-121h-184v-20q0 -73 41.5 -106.5 t142.5 -45.5v-45q-200 4 -303 4q-101 0 -297 -4v45q104 11 150.5 45t46.5 105q0 4 -1.5 11t-1.5 11h-45q-142 0 -309 -10zM1296 332l7 -8q57 14 133 14h120v260l-8 2q-84 -117 -252 -268z" />
<glyph unicode="&#xbf;" horiz-adv-x="985" d="M172 608q0 199 57 289q47 72 148.5 107t290.5 57q45 -158 45 -223q0 -47 -13.5 -78.5t-48 -54t-77.5 -36.5t-117 -30l-187 -39l4 -47q471 -88 471 -248q0 -102 -73 -334h-92q-6 59 -25 78q-8 10 -33.5 18.5t-69 23.5t-81.5 34q-106 54 -152.5 168t-46.5 315zM381 1305 q0 91 63 155t154 64t155 -64t64 -155q0 -92 -63.5 -156t-155.5 -64t-154.5 63.5t-62.5 156.5z" />
<glyph unicode="&#xc0;" horiz-adv-x="1593" d="M-57 0v80q122 42 168 96q32 38 74.5 118.5t76 153.5t103.5 234l225 516l-43 82q169 75 276 231h107l346 -909q97 -256 130 -324q31 -62 60 -98q62 -73 189 -100v-80q-199 6 -418 6q-217 0 -451 -6v80q89 12 136 43t47 76q0 75 -80 282h-416q-45 -128 -45 -221 q0 -79 55.5 -117.5t192.5 -62.5v-80q-133 4 -385 4q-237 0 -348 -4zM473 1921l176 147l275 -495l-70 -45zM537 682h274l-145 387z" />
<glyph unicode="&#xc1;" horiz-adv-x="1593" d="M-57 0v80q122 42 168 96q32 38 74.5 118.5t76 153.5t103.5 234l225 516l-43 82q169 75 276 231h107l346 -909q97 -256 130 -324q31 -62 60 -98q62 -73 189 -100v-80q-199 6 -418 6q-217 0 -451 -6v80q89 12 136 43t47 76q0 75 -80 282h-416q-45 -128 -45 -221 q0 -79 55.5 -117.5t192.5 -62.5v-80q-133 4 -385 4q-237 0 -348 -4zM537 682h274l-145 387zM745 1577l269 491l182 -155l-387 -383z" />
<glyph unicode="&#xc2;" horiz-adv-x="1593" d="M-57 0v80q122 42 168 96q32 38 74.5 118.5t76 153.5t103.5 234l225 516l-43 82q169 75 276 231h107l346 -909q97 -256 130 -324q31 -62 60 -98q62 -73 189 -100v-80q-199 6 -418 6q-217 0 -451 -6v80q89 12 136 43t47 76q0 75 -80 282h-416q-45 -128 -45 -221 q0 -79 55.5 -117.5t192.5 -62.5v-80q-133 4 -385 4q-237 0 -348 -4zM506 1559l256 483h141l254 -486l-67 -32l-252 276h-11l-256 -272zM537 682h274l-145 387z" />
<glyph unicode="&#xc3;" horiz-adv-x="1593" d="M-57 0v80q122 42 168 96q32 38 74.5 118.5t76 153.5t103.5 234l225 516l-43 82q169 75 276 231h107l346 -909q97 -256 130 -324q31 -62 60 -98q62 -73 189 -100v-80q-199 6 -418 6q-217 0 -451 -6v80q89 12 136 43t47 76q0 75 -80 282h-416q-45 -128 -45 -221 q0 -79 55.5 -117.5t192.5 -62.5v-80q-133 4 -385 4q-237 0 -348 -4zM444 1657q92 121 146.5 167t132.5 46q29 0 116.5 -12.5t147.5 -12.5q54 0 90 27t74 92l66 -53q-42 -62 -66.5 -96t-56 -70t-57 -53t-57.5 -28t-69 -11q-54 0 -141.5 12t-118.5 12q-44 0 -76.5 -16.5 t-74.5 -56.5zM537 682h274l-145 387z" />
<glyph unicode="&#xc4;" horiz-adv-x="1593" d="M-57 0v80q122 42 168 96q32 38 74.5 118.5t76 153.5t103.5 234l225 516l-43 82q169 75 276 231h107l346 -909q97 -256 130 -324q31 -62 60 -98q62 -73 189 -100v-80q-199 6 -418 6q-217 0 -451 -6v80q89 12 136 43t47 76q0 75 -80 282h-416q-45 -128 -45 -221 q0 -79 55.5 -117.5t192.5 -62.5v-80q-133 4 -385 4q-237 0 -348 -4zM432 1767q0 74 46.5 120t117.5 46q72 0 120 -46.5t48 -114.5q0 -70 -46 -117t-116 -47q-74 0 -122 46.5t-48 112.5zM537 682h274l-145 387zM903 1767q0 73 45.5 119.5t118.5 46.5q70 0 119 -46.5 t49 -114.5q0 -70 -46 -117t-116 -47q-74 0 -122 46.5t-48 112.5z" />
<glyph unicode="&#xc5;" horiz-adv-x="1593" d="M-57 0v80q122 42 168 96q32 38 74.5 118.5t76 153.5t103.5 234l225 516l-23 39q166 78 277 195h119l313 -830q13 -34 47.5 -127t48.5 -128t40 -85.5t52 -81.5q61 -73 191 -100v-80q-199 6 -418 6q-217 0 -451 -6v80q89 12 136 43t47 76q0 75 -80 282h-416 q-45 -128 -45 -221q0 -79 55.5 -117.5t192.5 -62.5v-80q-200 6 -385 6q-181 0 -348 -6zM537 682h274l-145 387zM588 1739q0 98 67.5 165.5t165.5 67.5t166 -67.5t68 -165.5t-68 -166t-166 -68t-165.5 68t-67.5 166zM698 1739q0 -59 34 -94t89 -35q57 0 90 34.5t33 94.5 q0 61 -33 95t-90 34q-55 0 -89 -35t-34 -94z" />
<glyph unicode="&#xc6;" horiz-adv-x="2199" d="M-240 0v80q68 13 126.5 42t112.5 78.5t97 101.5t101 132q262 365 374.5 541.5t112.5 238.5q0 42 -51.5 73.5t-157.5 58.5v81h1553l-27 -430h-94q-32 165 -120 233t-271 68h-132v-487h101q129 0 191.5 43.5t88.5 159.5h78q-6 -153 -6 -305q0 -151 6 -301h-78 q-29 130 -86.5 172.5t-193.5 42.5h-101v-215q0 -188 27 -222q43 -53 174 -53q161 0 272 117.5t152 339.5h113v-45q0 -295 -78 -545q-314 6 -647 6q-335 0 -684 -6v80q163 29 215 94q32 41 41.5 135.5t11.5 296.5h-463l-90 -170q-92 -176 -92 -225q0 -85 229 -131v-80 q-290 4 -420 4q-139 0 -385 -4zM627 793h354v528h-53z" />
<glyph unicode="&#xc7;" horiz-adv-x="1705" d="M84 700q0 170 63 313t177.5 243.5t281 157t367.5 56.5q282 0 547 -100v-506h-121q-47 228 -153 344.5t-265 116.5q-193 0 -310.5 -157.5t-117.5 -432.5q0 -288 116.5 -456t303.5 -168q164 0 299.5 130t236.5 386l115 -29q-79 -387 -137 -541q-222 -98 -520 -98 q-411 0 -647 199t-236 542zM655 -446q0 40 25 65t63 25q43 0 82 -31q14 -12 33 -34t32.5 -33t29.5 -11q38 0 38 39q0 10 -4 20t-15.5 23t-20.5 22t-30.5 28.5t-33.5 31.5q-59 56 -59 108q0 96 184 205l172 15q-99 -38 -141.5 -67.5t-42.5 -70.5q0 -11 3.5 -21t14.5 -23.5 t18.5 -21.5t27.5 -28.5t30 -30.5q63 -66 63 -116q0 -78 -93.5 -150.5t-209.5 -72.5q-77 0 -121.5 35.5t-44.5 93.5z" />
<glyph unicode="&#xc8;" horiz-adv-x="1554" d="M0 1346v81h1378l-26 -430h-95q-32 165 -120 233t-271 68h-159v-464h131q127 0 187.5 41t90.5 155h78q-6 -147 -6 -299t6 -311h-78q-26 135 -83.5 180t-194.5 45h-131v-237v-66q0 -55 2.5 -84t12 -57.5t29.5 -40.5t53 -19.5t85 -7.5q200 0 308 105t165 352h111 q0 -374 -78 -590h-1375v80q164 29 216 94q35 45 44 162t9 377q0 140 -1 204t-5.5 146t-16 123.5t-30.5 66.5q-56 73 -236 93zM397 1921l176 147l275 -495l-70 -45z" />
<glyph unicode="&#xc9;" horiz-adv-x="1554" d="M0 1346v81h1378l-26 -430h-95q-32 165 -120 233t-271 68h-159v-464h131q127 0 187.5 41t90.5 155h78q-6 -147 -6 -299t6 -311h-78q-26 135 -83.5 180t-194.5 45h-131v-237v-66q0 -55 2.5 -84t12 -57.5t29.5 -40.5t53 -19.5t85 -7.5q200 0 308 105t165 352h111 q0 -374 -78 -590h-1375v80q164 29 216 94q35 45 44 162t9 377q0 140 -1 204t-5.5 146t-16 123.5t-30.5 66.5q-56 73 -236 93zM670 1577l268 491l182 -155l-387 -383z" />
<glyph unicode="&#xca;" horiz-adv-x="1554" d="M0 1346v81h1378l-26 -430h-95q-32 165 -120 233t-271 68h-159v-464h131q127 0 187.5 41t90.5 155h78q-6 -147 -6 -299t6 -311h-78q-26 135 -83.5 180t-194.5 45h-131v-237v-66q0 -55 2.5 -84t12 -57.5t29.5 -40.5t53 -19.5t85 -7.5q200 0 308 105t165 352h111 q0 -374 -78 -590h-1375v80q164 29 216 94q35 45 44 162t9 377q0 140 -1 204t-5.5 146t-16 123.5t-30.5 66.5q-56 73 -236 93zM430 1559l256 483h141l254 -486l-67 -32l-252 276h-10l-256 -272z" />
<glyph unicode="&#xcb;" horiz-adv-x="1554" d="M0 1346v81h1378l-26 -430h-95q-32 165 -120 233t-271 68h-159v-464h131q127 0 187.5 41t90.5 155h78q-6 -147 -6 -299t6 -311h-78q-26 135 -83.5 180t-194.5 45h-131v-237v-66q0 -55 2.5 -84t12 -57.5t29.5 -40.5t53 -19.5t85 -7.5q200 0 308 105t165 352h111 q0 -374 -78 -590h-1375v80q164 29 216 94q35 45 44 162t9 377q0 140 -1 204t-5.5 146t-16 123.5t-30.5 66.5q-56 73 -236 93zM356 1767q0 74 46.5 120t117.5 46q72 0 120 -46.5t48 -114.5q0 -70 -46 -117t-116 -47q-74 0 -122 46.5t-48 112.5zM827 1767q0 73 45.5 119.5 t118.5 46.5q70 0 119 -46.5t49 -114.5q0 -70 -46 -117t-116 -47q-74 0 -122 46.5t-48 112.5z" />
<glyph unicode="&#xcc;" d="M33 0v80q175 20 235 94q35 46 44.5 164t9.5 375q0 258 -9.5 376t-44.5 164q-59 73 -235 93v81q249 -6 497 -6q249 0 498 6v-81q-176 -20 -235 -93q-35 -45 -43.5 -160.5t-8.5 -379.5q0 -263 8.5 -378.5t43.5 -160.5q60 -74 235 -94v-80q-249 6 -498 6q-248 0 -497 -6z M172 1921l176 147l275 -495l-70 -45z" />
<glyph unicode="&#xcd;" d="M33 0v80q175 20 235 94q35 46 44.5 164t9.5 375q0 258 -9.5 376t-44.5 164q-59 73 -235 93v81q249 -6 497 -6q249 0 498 6v-81q-176 -20 -235 -93q-35 -45 -43.5 -160.5t-8.5 -379.5q0 -263 8.5 -378.5t43.5 -160.5q60 -74 235 -94v-80q-249 6 -498 6q-248 0 -497 -6z M444 1577l269 491l182 -155l-387 -383z" />
<glyph unicode="&#xce;" d="M33 0v80q175 20 235 94q35 46 44.5 164t9.5 375q0 258 -9.5 376t-44.5 164q-59 73 -235 93v81q249 -6 497 -6q249 0 498 6v-81q-176 -20 -235 -93q-35 -45 -43.5 -160.5t-8.5 -379.5q0 -263 8.5 -378.5t43.5 -160.5q60 -74 235 -94v-80q-249 6 -498 6q-248 0 -497 -6z M205 1559l256 483h141l254 -486l-68 -32l-251 276h-11l-256 -272z" />
<glyph unicode="&#xcf;" d="M33 0v80q175 20 235 94q35 46 44.5 164t9.5 375q0 258 -9.5 376t-44.5 164q-59 73 -235 93v81q249 -6 497 -6q249 0 498 6v-81q-176 -20 -235 -93q-35 -45 -43.5 -160.5t-8.5 -379.5q0 -263 8.5 -378.5t43.5 -160.5q60 -74 235 -94v-80q-249 6 -498 6q-248 0 -497 -6z M131 1767q0 74 46.5 120t117.5 46q72 0 120 -46.5t48 -114.5q0 -70 -46 -117t-116 -47q-74 0 -122 46.5t-48 112.5zM602 1767q0 73 45.5 119.5t118.5 46.5q70 0 119 -46.5t49 -114.5q0 -70 -46 -117t-116 -47q-74 0 -122 46.5t-48 112.5z" />
<glyph unicode="&#xd0;" horiz-adv-x="1830" d="M10 666v168q153 -13 289 -13q0 311 -37 398q-44 98 -252 122v80q361 25 555 25q1176 0 1176 -760q0 -200 -89.5 -352.5t-256.5 -237.5q-111 -56 -243.5 -77t-311.5 -21q-44 0 -212.5 3t-293.5 3q-83 0 -305 -4v80q197 37 233 123q37 84 37 407v68q-90 -3 -289 -12z M717 514q0 -83 5 -138.5t18.5 -103t37.5 -74t62 -41t92 -14.5q145 0 234 134.5t89 373.5q0 296 -138.5 467t-399.5 197v-490q214 0 352 6v-159q-19 1 -65.5 2t-126.5 3t-160 5v-168z" />
<glyph unicode="&#xd1;" horiz-adv-x="1857" d="M12 0v80q71 14 114 32t70 50t39 70.5t21 105.5q25 174 25 719q0 129 -59 192t-210 97v81q167 -6 332 -6q166 0 330 6q39 -80 141 -204t287 -337.5t332 -400.5q-12 373 -26.5 538.5t-49.5 215.5q-53 72 -268 107v81q190 -6 376 -6t365 6v-81q-89 -21 -135.5 -47.5 t-59.5 -67.5q-51 -158 -51 -879q0 -138 8 -307l-211 -102l-714 831q-100 119 -226 248q9 -659 37 -774q28 -128 289 -168v-80q-208 6 -397 6q-187 0 -359 -6zM561 1657q92 121 146.5 167t132.5 46q29 0 116.5 -12.5t147.5 -12.5q54 0 90 27t74 92l65 -53q-42 -62 -66 -95.5 t-55.5 -70t-57 -53.5t-57.5 -28t-69 -11q-54 0 -141.5 12t-118.5 12q-44 0 -77.5 -16.5t-74.5 -56.5z" />
<glyph unicode="&#xd2;" horiz-adv-x="1857" d="M80 711q0 160 54 286.5t169 233.5q257 239 623 239q292 0 520 -149q160 -106 246 -260t86 -334q0 -236 -140 -438q-111 -161 -294.5 -248.5t-413.5 -87.5q-381 0 -627 237q-106 103 -164.5 239t-58.5 282zM553 774q0 -219 84 -407q121 -263 321 -263q150 0 249.5 147.5 t99.5 383.5q0 153 -33.5 283t-90 217t-131 135.5t-155.5 48.5q-149 0 -246.5 -149t-97.5 -396zM569 1921l176 147l275 -495l-70 -45z" />
<glyph unicode="&#xd3;" horiz-adv-x="1857" d="M80 711q0 160 54 286.5t169 233.5q257 239 623 239q292 0 520 -149q160 -106 246 -260t86 -334q0 -236 -140 -438q-111 -161 -294.5 -248.5t-413.5 -87.5q-381 0 -627 237q-106 103 -164.5 239t-58.5 282zM553 774q0 -219 84 -407q121 -263 321 -263q150 0 249.5 147.5 t99.5 383.5q0 153 -33.5 283t-90 217t-131 135.5t-155.5 48.5q-149 0 -246.5 -149t-97.5 -396zM842 1577l268 491l182 -155l-387 -383z" />
<glyph unicode="&#xd4;" horiz-adv-x="1857" d="M80 711q0 160 54 286.5t169 233.5q257 239 623 239q292 0 520 -149q160 -106 246 -260t86 -334q0 -236 -140 -438q-111 -161 -294.5 -248.5t-413.5 -87.5q-381 0 -627 237q-106 103 -164.5 239t-58.5 282zM553 774q0 -219 84 -407q121 -263 321 -263q150 0 249.5 147.5 t99.5 383.5q0 153 -33.5 283t-90 217t-131 135.5t-155.5 48.5q-149 0 -246.5 -149t-97.5 -396zM602 1559l256 483h141l254 -486l-67 -32l-252 276h-10l-256 -272z" />
<glyph unicode="&#xd5;" horiz-adv-x="1857" d="M80 711q0 160 54 286.5t169 233.5q257 239 623 239q292 0 520 -149q160 -106 246 -260t86 -334q0 -236 -140 -438q-111 -161 -294.5 -248.5t-413.5 -87.5q-381 0 -627 237q-106 103 -164.5 239t-58.5 282zM541 1657q48 63 73.5 93.5t61 63t69 44.5t74.5 12 q29 0 116.5 -12.5t147.5 -12.5q54 0 90 27t74 92l66 -53q-42 -62 -66 -95.5t-55.5 -70t-57 -53.5t-57.5 -28t-69 -11q-54 0 -141.5 12t-118.5 12q-44 0 -77.5 -16.5t-74.5 -56.5zM553 774q0 -219 84 -407q121 -263 321 -263q150 0 249.5 147.5t99.5 383.5q0 153 -33.5 283 t-90 217t-131 135.5t-155.5 48.5q-149 0 -246.5 -149t-97.5 -396z" />
<glyph unicode="&#xd6;" horiz-adv-x="1857" d="M80 711q0 160 54 286.5t169 233.5q257 239 623 239q292 0 520 -149q160 -106 246 -260t86 -334q0 -236 -140 -438q-111 -161 -294.5 -248.5t-413.5 -87.5q-381 0 -627 237q-106 103 -164.5 239t-58.5 282zM528 1767q0 74 46.5 120t117.5 46q72 0 120 -46.5t48 -114.5 q0 -70 -46 -117t-116 -47q-74 0 -122 46.5t-48 112.5zM553 774q0 -219 84 -407q121 -263 321 -263q150 0 249.5 147.5t99.5 383.5q0 153 -33.5 283t-90 217t-131 135.5t-155.5 48.5q-149 0 -246.5 -149t-97.5 -396zM999 1767q0 73 45.5 119.5t118.5 46.5q70 0 119 -46.5 t49 -114.5q0 -70 -46 -117t-116 -47q-74 0 -122 46.5t-48 112.5z" />
<glyph unicode="&#xd7;" horiz-adv-x="1705" d="M256 182l428 428l-428 428l190 193l428 -428l429 428l192 -193l-428 -428l428 -428l-192 -190l-429 428l-428 -428z" />
<glyph unicode="&#xd8;" horiz-adv-x="1857" d="M80 711q0 145 58.5 281t164.5 239q245 239 629 239q202 0 383 -75l162 237l104 -71l-151 -228q169 -115 258.5 -275.5t89.5 -346.5q0 -146 -58 -282t-164 -239q-245 -239 -628 -239q-198 0 -379 76l-172 -254l-111 77l166 238q-169 112 -260.5 274.5t-91.5 348.5z M549 762q0 -214 84 -393l530 790q-106 162 -264 162q-152 0 -251 -153t-99 -406zM698 254q44 -72 112 -111t148 -39q152 0 249.5 145.5t97.5 387.5q0 206 -74 403z" />
<glyph unicode="&#xd9;" horiz-adv-x="1820" d="M0 1346v81q237 -6 477 -6t486 6v-81q-205 -30 -244 -121q-17 -41 -25 -132.5t-9 -180t-1 -285.5q0 -121 10 -197.5t37 -124.5q94 -160 311 -160q181 0 260.5 105.5t79.5 331.5q0 574 -61 657q-50 67 -242 107v81q193 -6 377 -6q186 0 365 6v-81q-108 -21 -150 -48 q-48 -30 -67 -126t-31 -300q-4 -56 -8.5 -169t-8.5 -164q-11 -134 -32.5 -219t-79.5 -160q-162 -207 -526 -207q-333 0 -519 156q-83 70 -113 175t-30 279v502q0 138 -51 195t-205 86zM664 1921l176 147l274 -495l-70 -45z" />
<glyph unicode="&#xda;" horiz-adv-x="1820" d="M0 1346v81q237 -6 477 -6t486 6v-81q-205 -30 -244 -121q-17 -41 -25 -132.5t-9 -180t-1 -285.5q0 -121 10 -197.5t37 -124.5q94 -160 311 -160q181 0 260.5 105.5t79.5 331.5q0 574 -61 657q-50 67 -242 107v81q193 -6 377 -6q186 0 365 6v-81q-108 -21 -150 -48 q-48 -30 -67 -126t-31 -300q-4 -56 -8.5 -169t-8.5 -164q-11 -134 -32.5 -219t-79.5 -160q-162 -207 -526 -207q-333 0 -519 156q-83 70 -113 175t-30 279v502q0 138 -51 195t-205 86zM936 1577l268 491l182 -155l-387 -383z" />
<glyph unicode="&#xdb;" horiz-adv-x="1820" d="M0 1346v81q237 -6 477 -6t486 6v-81q-205 -30 -244 -121q-17 -41 -25 -132.5t-9 -180t-1 -285.5q0 -121 10 -197.5t37 -124.5q94 -160 311 -160q181 0 260.5 105.5t79.5 331.5q0 574 -61 657q-50 67 -242 107v81q193 -6 377 -6q186 0 365 6v-81q-108 -21 -150 -48 q-48 -30 -67 -126t-31 -300q-4 -56 -8.5 -169t-8.5 -164q-11 -134 -32.5 -219t-79.5 -160q-162 -207 -526 -207q-333 0 -519 156q-83 70 -113 175t-30 279v502q0 138 -51 195t-205 86zM696 1559l256 483h142l254 -486l-68 -32l-252 276h-10l-256 -272z" />
<glyph unicode="&#xdc;" horiz-adv-x="1820" d="M0 1346v81q237 -6 477 -6t486 6v-81q-205 -30 -244 -121q-17 -41 -25 -132.5t-9 -180t-1 -285.5q0 -121 10 -197.5t37 -124.5q94 -160 311 -160q181 0 260.5 105.5t79.5 331.5q0 574 -61 657q-50 67 -242 107v81q193 -6 377 -6q186 0 365 6v-81q-108 -21 -150 -48 q-48 -30 -67 -126t-31 -300q-4 -56 -8.5 -169t-8.5 -164q-11 -134 -32.5 -219t-79.5 -160q-162 -207 -526 -207q-333 0 -519 156q-83 70 -113 175t-30 279v502q0 138 -51 195t-205 86zM623 1767q0 74 46 120t117 46q72 0 120 -46.5t48 -114.5q0 -70 -45.5 -117t-115.5 -47 q-74 0 -122 46.5t-48 112.5zM1094 1767q0 73 45 119.5t118 46.5q70 0 119 -46.5t49 -114.5q0 -70 -45.5 -117t-115.5 -47q-74 0 -122 46.5t-48 112.5z" />
<glyph unicode="&#xdd;" horiz-adv-x="1593" d="M-39 1346v81q225 -6 455 -6q233 0 467 6v-81q-174 -21 -174 -123q0 -17 11 -48.5t44.5 -100t58.5 -117t88 -170.5q6 -11 9 -17.5t8.5 -16.5t9.5 -18l80 205q78 204 78 268q0 117 -158 138v81q188 -6 360 -6q176 0 342 6v-81q-165 -7 -310.5 -198t-334.5 -611 q-2 -29 -2 -82q0 -177 72.5 -257.5t261.5 -117.5v-80q-270 6 -543 6q-271 0 -544 -6v80q93 21 148 39t95 47q54 37 76.5 112t22.5 201q0 61 -2 94l-248 443q-70 125 -103 168q-85 108 -228 151q-19 6 -40 11zM709 1577l268 491l182 -155l-387 -383z" />
<glyph unicode="&#xde;" horiz-adv-x="1525" d="M14 1346v81q249 -6 492 -6q245 0 479 6v-81q-136 -22 -197 -70t-65 -143q745 0 745 -388q0 -174 -163.5 -285.5t-479.5 -148.5l-30 78q213 106 213 324q0 124 -75.5 207t-209.5 102v-590q0 -117 16 -179.5t66 -98.5q54 -40 287 -74v-80q-273 6 -539 6t-524 -6v80 q169 26 223 94q35 45 43 158.5t8 380.5q0 141 -1 205.5t-5.5 146t-15 123t-29.5 65.5q-26 32 -87.5 57.5t-150.5 35.5z" />
<glyph unicode="&#xdf;" horiz-adv-x="1402" d="M12 791v75l193 127q38 244 209.5 384.5t431.5 140.5q200 0 312.5 -96.5t121.5 -276.5q-166 -30 -246 -76.5t-80 -116.5q0 -25 9.5 -47t31.5 -46t42 -41.5t58.5 -49.5t63.5 -55q108 -98 157.5 -177.5t49.5 -177.5q0 -164 -118.5 -272.5t-301.5 -108.5q-92 0 -178 25 q-82 2 -262 2q-135 0 -475 -4v80q38 4 65 9.5t47.5 11.5t32.5 18t19.5 22.5t10.5 32t4 38.5t1 50v19v510h-199zM584 301q0 -60 3 -91.5t15.5 -61t38 -43.5t68.5 -21q-7 28 -7 47q0 61 35.5 98t91.5 37q52 0 79.5 -22.5t66.5 -83.5q16 -26 23.5 -36.5t19 -20t24.5 -9.5 q19 0 33.5 20t14.5 50q0 28 -9 54.5t-19 44t-36 43t-40.5 37.5t-55 43t-56.5 44q-101 80 -148.5 150t-47.5 155q0 169 166 283q24 117 24 184q0 86 -32 135t-86 49q-79 0 -122.5 -93t-43.5 -269v-639v-84z" />
<glyph unicode="&#xe0;" horiz-adv-x="1099" d="M51 233q0 57 21 113l503 203q0 8 1.5 23t1.5 22q0 227 -156 227q-15 0 -22.5 -4t-11.5 -17.5t-4.5 -26.5t-0.5 -44q0 -55 2 -104q-188 -27 -262 -27q-60 0 -60 43q0 45 113 135q127 103 234 153t215 50q147 0 228 -90.5t81 -261.5q0 -32 -4 -125t-4 -154q0 -32 2 -52.5 t10 -40.5t18.5 -32t34 -27.5t49 -28t70.5 -32.5v-65q-136 -49 -220.5 -72t-144.5 -23q-98 0 -149 97q-168 -103 -289 -103q-116 0 -186 72t-70 192zM223 1434l176 147l275 -496l-70 -45zM422 291q0 -85 35.5 -124.5t111.5 -39.5h6v340l-149 -119q-4 -40 -4 -57z" />
<glyph unicode="&#xe1;" horiz-adv-x="1099" d="M51 233q0 57 21 113l503 203q0 8 1.5 23t1.5 22q0 227 -156 227q-15 0 -22.5 -4t-11.5 -17.5t-4.5 -26.5t-0.5 -44q0 -55 2 -104q-188 -27 -262 -27q-60 0 -60 43q0 45 113 135q127 103 234 153t215 50q147 0 228 -90.5t81 -261.5q0 -32 -4 -125t-4 -154q0 -32 2 -52.5 t10 -40.5t18.5 -32t34 -27.5t49 -28t70.5 -32.5v-65q-136 -49 -220.5 -72t-144.5 -23q-98 0 -149 97q-168 -103 -289 -103q-116 0 -186 72t-70 192zM422 291q0 -85 35.5 -124.5t111.5 -39.5h6v340l-149 -119q-4 -40 -4 -57zM496 1090l268 491l182 -156l-387 -383z" />
<glyph unicode="&#xe2;" horiz-adv-x="1099" d="M51 233q0 57 21 113l503 203q0 8 1.5 23t1.5 22q0 227 -156 227q-15 0 -22.5 -4t-11.5 -17.5t-4.5 -26.5t-0.5 -44q0 -55 2 -104q-188 -27 -262 -27q-60 0 -60 43q0 45 113 135q127 103 234 153t215 50q147 0 228 -90.5t81 -261.5q0 -32 -4 -125t-4 -154q0 -32 2 -52.5 t10 -40.5t18.5 -32t34 -27.5t49 -28t70.5 -32.5v-65q-136 -49 -220.5 -72t-144.5 -23q-98 0 -149 97q-168 -103 -289 -103q-116 0 -186 72t-70 192zM256 1071l256 483h141l254 -485l-67 -33l-252 277h-10l-256 -273zM422 291q0 -85 35.5 -124.5t111.5 -39.5h6v340l-149 -119 q-4 -40 -4 -57z" />
<glyph unicode="&#xe3;" horiz-adv-x="1099" d="M51 233q0 57 21 113l503 203q0 8 1.5 23t1.5 22q0 227 -156 227q-15 0 -22.5 -4t-11.5 -17.5t-4.5 -26.5t-0.5 -44q0 -55 2 -104q-188 -27 -262 -27q-60 0 -60 43q0 45 113 135q127 103 234 153t215 50q147 0 228 -90.5t81 -261.5q0 -32 -4 -125t-4 -154q0 -32 2 -52.5 t10 -40.5t18.5 -32t34 -27.5t49 -28t70.5 -32.5v-65q-136 -49 -220.5 -72t-144.5 -23q-98 0 -149 97q-168 -103 -289 -103q-116 0 -186 72t-70 192zM195 1169q48 63 73.5 93.5t61 63t69 44.5t74.5 12q29 0 116.5 -12t147.5 -12q54 0 90 27t74 92l66 -54q-42 -62 -66 -95.5 t-55.5 -70t-57 -53.5t-57.5 -28t-69 -11q-54 0 -142 12.5t-119 12.5q-44 0 -76.5 -17t-74.5 -57zM422 291q0 -85 35.5 -124.5t111.5 -39.5h6v340l-149 -119q-4 -40 -4 -57z" />
<glyph unicode="&#xe4;" horiz-adv-x="1099" d="M51 233q0 57 21 113l503 203q0 8 1.5 23t1.5 22q0 227 -156 227q-15 0 -22.5 -4t-11.5 -17.5t-4.5 -26.5t-0.5 -44q0 -55 2 -104q-188 -27 -262 -27q-60 0 -60 43q0 45 113 135q127 103 234 153t215 50q147 0 228 -90.5t81 -261.5q0 -32 -4 -125t-4 -154q0 -32 2 -52.5 t10 -40.5t18.5 -32t34 -27.5t49 -28t70.5 -32.5v-65q-136 -49 -220.5 -72t-144.5 -23q-98 0 -149 97q-168 -103 -289 -103q-116 0 -186 72t-70 192zM182 1280q0 74 46.5 120t117.5 46q72 0 120 -47t48 -115q0 -70 -46 -117t-116 -47q-74 0 -122 47t-48 113zM422 291 q0 -85 35.5 -124.5t111.5 -39.5h6v340l-149 -119q-4 -40 -4 -57zM653 1280q0 73 45.5 119.5t118.5 46.5q70 0 119 -47t49 -115q0 -70 -46 -117t-116 -47q-74 0 -122 47t-48 113z" />
<glyph unicode="&#xe5;" horiz-adv-x="1099" d="M51 233q0 57 21 113l503 203q0 8 1.5 23t1.5 22q0 227 -156 227q-15 0 -22.5 -4t-11.5 -17.5t-4.5 -26.5t-0.5 -44q0 -55 2 -104q-188 -27 -262 -27q-60 0 -60 43q0 45 113 135q127 103 234 153t215 50q142 0 225.5 -88.5t83.5 -247.5q0 -46 -5 -138.5t-5 -139.5 q0 -43 3 -67.5t12.5 -49t31 -41t54 -34t85.5 -38.5v-65q-136 -49 -220.5 -72t-144.5 -23q-98 0 -149 97q-168 -103 -289 -103q-116 0 -186 72t-70 192zM332 1292q0 104 72 176t176 72t175.5 -72t71.5 -176t-72 -177t-175 -73q-104 0 -176 73t-72 177zM422 291 q0 -85 35.5 -124.5t111.5 -39.5h6v340l-149 -119q-4 -40 -4 -57zM449 1292q0 -62 36.5 -100.5t94.5 -38.5q60 0 95.5 37.5t35.5 101.5t-35.5 101t-95.5 37q-58 0 -94.5 -38t-36.5 -100z" />
<glyph unicode="&#xe6;" horiz-adv-x="1593" d="M61 242q0 58 21 116l526 160q0 8 1 23t1 22q0 250 -161 250q-32 0 -40 -15.5t-8 -68.5q0 -59 9 -117q-194 -12 -240 -12q-31 0 -44 0.5t-28.5 4.5t-20.5 12.5t-5 23.5q0 31 43 70.5t149 113.5q225 156 408 156q126 0 225 -92q102 92 266 92q156 0 249 -94t93 -258v-19 l-557 -127q4 -126 72 -196t184 -70q75 0 140 36t143 112l61 -64q-103 -162 -237.5 -247t-282.5 -85q-235 0 -344 137q-113 -68 -194.5 -100.5t-165.5 -32.5q-123 0 -193 72t-70 197zM430 285q0 -142 139 -142q28 0 82 13q-39 66 -39 237v29l-180 -105q-2 -12 -2 -32z M938 582l227 75v33q0 168 -94 168q-62 0 -97.5 -67t-35.5 -191v-18z" />
<glyph unicode="&#xe7;" horiz-adv-x="1024" d="M55 442q0 242 203 408q156 129 381 129q139 0 223 -59t84 -148q0 -73 -56.5 -128.5t-131.5 -55.5q-95 0 -187 106q-16 18 -39 46t-34 40.5t-25.5 22.5t-28.5 10q-25 0 -43 -33.5t-18 -89.5q0 -213 97 -333.5t259 -120.5q110 0 201 71l57 -57q-202 -275 -471 -275 q-211 0 -341 128.5t-130 338.5zM270 -446q0 40 25 65t63 25q43 0 82 -31q14 -12 33 -34t32.5 -33t29.5 -11q38 0 38 39q0 10 -4 20t-15.5 23t-20.5 22t-30.5 28.5t-33.5 31.5q-59 56 -59 108q0 96 184 205l172 15q-99 -38 -141.5 -67.5t-42.5 -70.5q0 -11 3.5 -21 t14.5 -23.5t18.5 -21.5t27.5 -28.5t30 -30.5q63 -66 63 -116q0 -78 -93.5 -150.5t-209.5 -72.5q-77 0 -121.5 35.5t-44.5 93.5z" />
<glyph unicode="&#xe8;" d="M55 444q0 112 41 211.5t112 171t171 113t213 41.5q189 0 290 -108.5t101 -311.5v-22h-590q23 -135 120 -220.5t224 -85.5q133 0 224 113l71 -55q-107 -161 -228.5 -237.5t-275.5 -76.5q-207 0 -340 131.5t-133 335.5zM209 1434l176 147l274 -496l-69 -45zM385 651l266 8 v11q0 192 -119 192q-67 0 -105.5 -54.5t-41.5 -156.5z" />
<glyph unicode="&#xe9;" d="M55 444q0 112 41 211.5t112 171t171 113t213 41.5q189 0 290 -108.5t101 -311.5v-22h-590q23 -135 120 -220.5t224 -85.5q133 0 224 113l71 -55q-107 -161 -228.5 -237.5t-275.5 -76.5q-207 0 -340 131.5t-133 335.5zM385 651l266 8v11q0 192 -119 192 q-67 0 -105.5 -54.5t-41.5 -156.5zM481 1090l269 491l182 -156l-387 -383z" />
<glyph unicode="&#xea;" d="M55 444q0 112 41 211.5t112 171t171 113t213 41.5q189 0 290 -108.5t101 -311.5v-22h-590q23 -135 120 -220.5t224 -85.5q133 0 224 113l71 -55q-107 -161 -228.5 -237.5t-275.5 -76.5q-207 0 -340 131.5t-133 335.5zM242 1071l256 483h141l254 -485l-68 -33l-252 277 h-10l-256 -273zM385 651l266 8v11q0 192 -119 192q-67 0 -105.5 -54.5t-41.5 -156.5z" />
<glyph unicode="&#xeb;" d="M55 444q0 112 41 211.5t112 171t171 113t213 41.5q189 0 290 -108.5t101 -311.5v-22h-590q23 -135 120 -220.5t224 -85.5q133 0 224 113l71 -55q-107 -161 -228.5 -237.5t-275.5 -76.5q-207 0 -340 131.5t-133 335.5zM168 1280q0 74 46.5 120t117.5 46q72 0 120 -47 t48 -115q0 -70 -46 -117t-116 -47q-74 0 -122 47t-48 113zM385 651l266 8v11q0 192 -119 192q-67 0 -105.5 -54.5t-41.5 -156.5zM639 1280q0 73 45.5 119.5t118.5 46.5q70 0 119 -47t49 -115q0 -70 -46 -117t-116 -47q-74 0 -122 47t-48 113z" />
<glyph unicode="&#xec;" horiz-adv-x="757" d="M18 1434l177 147l274 -496l-70 -45zM29 0v80q40 6 66.5 12.5t44.5 18t28 21.5t15 31t6 39t1 52v27v260q0 63 -28 96t-119 92v82l469 184l68 -61q-11 -166 -11 -379v-274v-35q0 -46 3.5 -68.5t19 -44.5t47.5 -33t90 -20v-80q-234 4 -350 4t-350 -4z" />
<glyph unicode="&#xed;" horiz-adv-x="757" d="M29 0v80q40 6 66.5 12.5t44.5 18t28 21.5t15 31t6 39t1 52v27v260q0 63 -28 96t-119 92v82l469 184l68 -61q-11 -166 -11 -379v-274v-35q0 -46 3.5 -68.5t19 -44.5t47.5 -33t90 -20v-80q-234 4 -350 4t-350 -4zM291 1090l268 491l182 -156l-387 -383z" />
<glyph unicode="&#xee;" horiz-adv-x="757" d="M29 0v80q40 6 66.5 12.5t44.5 18t28 21.5t15 31t6 39t1 52v27v260q0 63 -28 96t-119 92v82l469 184l68 -61q-11 -166 -11 -379v-274v-35q0 -46 3.5 -68.5t19 -44.5t47.5 -33t90 -20v-80q-234 4 -350 4t-350 -4zM51 1071l256 483h142l253 -485l-67 -33l-252 277h-10 l-256 -273z" />
<glyph unicode="&#xef;" horiz-adv-x="757" d="M-23 1280q0 74 46.5 120t117.5 46q72 0 120 -47t48 -115q0 -70 -46 -117t-116 -47q-74 0 -122 47t-48 113zM29 0v80q40 6 66.5 12.5t44.5 18t28 21.5t15 31t6 39t1 52v27v260q0 63 -28 96t-119 92v82l469 184l68 -61q-11 -166 -11 -379v-274v-35q0 -46 3.5 -68.5 t19 -44.5t47.5 -33t90 -20v-80q-234 4 -350 4t-350 -4zM449 1280q0 73 45 119.5t118 46.5q70 0 119 -47t49 -115q0 -70 -46 -117t-116 -47q-73 0 -121 47t-48 113z" />
<glyph unicode="&#xf0;" horiz-adv-x="1251" d="M49 473q0 215 164 356.5t416 141.5q33 0 114 -15q-69 127 -155 215l-254 -159l-78 92l246 160q-42 58 -109.5 90t-152.5 32l-13 37l336 84h37q95 -70 127 -102l229 147l76 -94l-227 -145q391 -426 391 -776q0 -246 -164.5 -403t-429.5 -157q-258 0 -405.5 135t-147.5 361 zM473 532q0 -100 15.5 -186.5t40.5 -143t55.5 -88.5t60.5 -32q67 0 105 100t38 291q0 139 -24 289q-53 108 -131 108q-70 0 -115 -90t-45 -248z" />
<glyph unicode="&#xf1;" horiz-adv-x="1366" d="M33 0v80q32 6 54 13t38.5 14t26.5 21t16 24.5t8.5 34t3 41t0.5 53.5v237q0 77 -26 115.5t-121 95.5v82l471 184l55 -57l-20 -94q105 69 188 103t162 34q155 0 230 -94t75 -285v-321q0 -54 3.5 -80.5t20 -52t48 -39.5t90.5 -29v-80q-212 4 -318 4q-107 0 -319 -4v80 q32 11 51 25.5t28 38t11 46t2 64.5v27v231q0 137 -58 200.5t-188 63.5h-6v-495v-23q0 -81 18 -116.5t89 -61.5v-80q-208 4 -316 4q-105 0 -317 -4zM295 1169q48 63 73.5 93.5t61 63t69 44.5t74.5 12q29 0 117 -12t148 -12q54 0 89.5 27t73.5 92l66 -54q-42 -62 -66 -95.5 t-55.5 -70t-57 -53.5t-57.5 -28t-69 -11q-54 0 -141.5 12.5t-118.5 12.5q-44 0 -77 -17t-75 -57z" />
<glyph unicode="&#xf2;" horiz-adv-x="1251" d="M51 477q0 229 157 366.5t419 137.5t417.5 -137.5t155.5 -366.5t-155.5 -367.5t-417.5 -138.5t-419 138.5t-157 367.5zM266 1434l176 147l275 -496l-70 -45zM469 477q0 -204 36 -298.5t122 -94.5q85 0 122 87t37 273q0 222 -36.5 324t-122.5 102t-122 -94.5t-36 -298.5z " />
<glyph unicode="&#xf3;" horiz-adv-x="1251" d="M51 477q0 229 157 366.5t419 137.5t417.5 -137.5t155.5 -366.5t-155.5 -367.5t-417.5 -138.5t-419 138.5t-157 367.5zM469 477q0 -204 36 -298.5t122 -94.5q85 0 122 87t37 273q0 222 -36.5 324t-122.5 102t-122 -94.5t-36 -298.5zM539 1090l268 491l182 -156l-387 -383z " />
<glyph unicode="&#xf4;" horiz-adv-x="1251" d="M51 477q0 229 157 366.5t419 137.5t417.5 -137.5t155.5 -366.5t-155.5 -367.5t-417.5 -138.5t-419 138.5t-157 367.5zM299 1071l256 483h141l254 -485l-67 -33l-252 277h-10l-256 -273zM469 477q0 -204 36 -298.5t122 -94.5q85 0 122 87t37 273q0 222 -36.5 324 t-122.5 102t-122 -94.5t-36 -298.5z" />
<glyph unicode="&#xf5;" horiz-adv-x="1251" d="M51 477q0 229 157 366.5t419 137.5t417.5 -137.5t155.5 -366.5t-155.5 -367.5t-417.5 -138.5t-419 138.5t-157 367.5zM238 1169q48 63 73.5 93.5t61 63t69 44.5t74.5 12q29 0 116.5 -12t147.5 -12q54 0 90 27t74 92l66 -54q-42 -62 -66 -95.5t-55.5 -70t-57 -53.5 t-57.5 -28t-69 -11q-54 0 -142 12.5t-119 12.5q-44 0 -76.5 -17t-74.5 -57zM469 477q0 -204 36 -298.5t122 -94.5q85 0 122 87t37 273q0 222 -36.5 324t-122.5 102t-122 -94.5t-36 -298.5z" />
<glyph unicode="&#xf6;" horiz-adv-x="1251" d="M51 477q0 229 157 366.5t419 137.5t417.5 -137.5t155.5 -366.5t-155.5 -367.5t-417.5 -138.5t-419 138.5t-157 367.5zM225 1280q0 74 46.5 120t117.5 46q72 0 120 -47t48 -115q0 -70 -46 -117t-116 -47q-74 0 -122 47t-48 113zM469 477q0 -204 36 -298.5t122 -94.5 q85 0 122 87t37 273q0 222 -36.5 324t-122.5 102t-122 -94.5t-36 -298.5zM696 1280q0 73 45.5 119.5t118.5 46.5q70 0 119 -47t49 -115q0 -70 -46 -117t-116 -47q-74 0 -122 47t-48 113z" />
<glyph unicode="&#xf7;" horiz-adv-x="1705" d="M254 475v273h1198v-273h-1198zM670 188q0 77 54 130t130 53q74 0 128 -54t54 -129q0 -73 -53.5 -127.5t-130.5 -54.5q-76 0 -129 53.5t-53 128.5zM670 1032q0 77 54 131t130 54q74 0 128 -55t54 -130q0 -73 -53.5 -127.5t-130.5 -54.5q-76 0 -129 53.5t-53 128.5z" />
<glyph unicode="&#xf8;" horiz-adv-x="1251" d="M51 477q0 229 156.5 366.5t421.5 137.5q127 0 237 -37l119 180l90 -61l-112 -166q237 -142 237 -420q0 -227 -155 -366.5t-406 -139.5q-156 0 -277 47l-126 -198l-84 59l118 184q-112 72 -165.5 173t-53.5 241zM467 487q0 -69 6 -157l277 436q-15 48 -47.5 76t-75.5 28 q-84 0 -122 -93.5t-38 -289.5zM496 207q10 -56 47 -89.5t84 -33.5q86 0 122.5 88.5t36.5 278.5q0 124 -10 200z" />
<glyph unicode="&#xf9;" horiz-adv-x="1366" d="M0 844v76l545 61v-561q0 -137 58 -199.5t188 -62.5h6v487q0 41 -1.5 65t-7.5 49t-17.5 37.5t-32 24t-50 16.5t-72.5 7v76l560 61v-571q0 -49 1 -75.5t6.5 -55.5t15.5 -42t28.5 -25t45 -15.5t66.5 -3.5h31l12 -82l-585 -144l20 135q-101 -67 -183 -99t-169 -32 q-155 0 -229 94t-74 285v295q0 48 -2 73.5t-10.5 52t-26 39t-47 21.5t-76.5 13zM324 1434l176 147l274 -496l-69 -45z" />
<glyph unicode="&#xfa;" horiz-adv-x="1366" d="M0 844v76l545 61v-561q0 -137 58 -199.5t188 -62.5h6v487q0 41 -1.5 65t-7.5 49t-17.5 37.5t-32 24t-50 16.5t-72.5 7v76l560 61v-571q0 -49 1 -75.5t6.5 -55.5t15.5 -42t28.5 -25t45 -15.5t66.5 -3.5h31l12 -82l-585 -144l20 135q-101 -67 -183 -99t-169 -32 q-155 0 -229 94t-74 285v295q0 48 -2 73.5t-10.5 52t-26 39t-47 21.5t-76.5 13zM596 1090l268 491l183 -156l-388 -383z" />
<glyph unicode="&#xfb;" horiz-adv-x="1366" d="M0 844v76l545 61v-561q0 -137 58 -199.5t188 -62.5h6v487q0 41 -1.5 65t-7.5 49t-17.5 37.5t-32 24t-50 16.5t-72.5 7v76l560 61v-571q0 -49 1 -75.5t6.5 -55.5t15.5 -42t28.5 -25t45 -15.5t66.5 -3.5h31l12 -82l-585 -144l20 135q-101 -67 -183 -99t-169 -32 q-155 0 -229 94t-74 285v295q0 48 -2 73.5t-10.5 52t-26 39t-47 21.5t-76.5 13zM356 1071l256 483h142l254 -485l-68 -33l-252 277h-10l-256 -273z" />
<glyph unicode="&#xfc;" horiz-adv-x="1366" d="M0 844v76l545 61v-561q0 -137 58 -199.5t188 -62.5h6v487q0 41 -1.5 65t-7.5 49t-17.5 37.5t-32 24t-50 16.5t-72.5 7v76l560 61v-571q0 -49 1 -75.5t6.5 -55.5t15.5 -42t28.5 -25t45 -15.5t66.5 -3.5h31l12 -82l-585 -144l20 135q-101 -67 -183 -99t-169 -32 q-155 0 -229 94t-74 285v295q0 48 -2 73.5t-10.5 52t-26 39t-47 21.5t-76.5 13zM283 1280q0 74 46 120t117 46q72 0 120 -47t48 -115q0 -70 -45.5 -117t-115.5 -47q-74 0 -122 47t-48 113zM754 1280q0 73 45.5 119.5t118.5 46.5q70 0 118.5 -47t48.5 -115q0 -70 -45.5 -117 t-115.5 -47q-74 0 -122 47t-48 113z" />
<glyph unicode="&#xfd;" d="M-80 872v80q115 -2 340 -2q227 0 340 2v-80q-56 -10 -86.5 -33t-30.5 -53q0 -59 195 -467q82 324 82 447q0 42 -24 63.5t-89 42.5v80q82 -2 238 -2q151 0 223 2v-80q-111 -38 -147 -108q-8 -15 -42.5 -101t-110.5 -273.5t-159 -385.5q-52 -124 -93 -210t-86 -162 t-86.5 -120.5t-89 -70t-99.5 -25.5q-87 0 -146 59t-59 152q0 91 63 153.5t170 72.5q59 -132 113 -132q50 0 156 177l-363 743q-49 102 -69 131q-49 71 -140 100zM444 1090l269 491l182 -156l-387 -383z" />
<glyph unicode="&#xfe;" horiz-adv-x="1327" d="M0 1241v80l498 197l55 -58q-4 -143 -4 -520v-96q122 137 291 137q111 0 207.5 -61t155.5 -168.5t59 -235.5q0 -112 -47.5 -210t-133.5 -170t-213.5 -113t-279.5 -41h-37v-205q0 -102 6.5 -148t30.5 -65q31 -24 88 -38t164 -30v-80q-286 4 -426 4q-144 0 -410 -4v80 q116 21 150 80q12 20 12 201v1245q0 99 -12 119q-11 20 -44.5 40.5t-109.5 59.5zM551 424q0 -318 164 -318q72 0 111.5 61.5t39.5 178.5q0 191 -87 309.5t-228 124.5v-356z" />
<glyph unicode="&#xff;" d="M-80 872v80q115 -2 340 -2q227 0 340 2v-80q-56 -10 -86.5 -33t-30.5 -53q0 -59 195 -467q82 324 82 447q0 42 -24 63.5t-89 42.5v80q82 -2 238 -2q151 0 223 2v-80q-111 -38 -147 -108q-8 -15 -42.5 -101t-110.5 -273.5t-159 -385.5q-52 -124 -93 -210t-86 -162 t-86.5 -120.5t-89 -70t-99.5 -25.5q-87 0 -146 59t-59 152q0 91 63 153.5t170 72.5q59 -132 113 -132q50 0 156 177l-363 743q-49 102 -69 131q-49 71 -140 100zM131 1280q0 74 46.5 120t117.5 46q72 0 120 -47t48 -115q0 -70 -46 -117t-116 -47q-74 0 -122 47t-48 113z M602 1280q0 73 45.5 119.5t118.5 46.5q70 0 119 -47t49 -115q0 -70 -46 -117t-116 -47q-74 0 -122 47t-48 113z" />
<glyph unicode="&#x152;" horiz-adv-x="2238" d="M78 709q0 342 232.5 539.5t645.5 197.5q41 0 350.5 -9.5t579.5 -9.5h180l-24 -430h-96q-32 165 -120.5 233t-271.5 68h-131v-467h103q129 0 190.5 43.5t87.5 159.5h78q-6 -153 -6 -305q0 -153 6 -303h-78q-29 130 -85.5 172.5t-192.5 42.5h-103v-233q0 -188 27 -222 q43 -53 176 -53q160 0 271.5 118.5t152.5 338.5h113v-43q0 -290 -80 -547q-187 6 -344 6q-249 0 -508.5 -12t-269.5 -12q-422 0 -652.5 191t-230.5 536zM541 666q0 -241 94.5 -393t220.5 -152q98 0 134 70.5t36 234.5q0 292 -12 887q-224 -6 -348.5 -174t-124.5 -473z" />
<glyph unicode="&#x153;" horiz-adv-x="1744" d="M41 477q0 229 155.5 366.5t417.5 137.5q209 0 349 -100q146 98 305 98q196 0 300.5 -109t104.5 -315v-23h-588q26 -137 122 -221t220 -84q135 0 226 113l69 -55q-105 -161 -226.5 -237.5t-276.5 -76.5q-170 0 -273 86q-121 -86 -332 -86q-262 0 -417.5 138.5 t-155.5 367.5zM453 477q0 -203 35.5 -298t119.5 -95t123 88t39 272q0 218 -38.5 322t-123.5 104q-84 0 -119.5 -95t-35.5 -298zM1081 645l260 8v11q0 192 -118 192q-65 0 -103 -54.5t-39 -156.5z" />
<glyph unicode="&#x178;" horiz-adv-x="1593" d="M-39 1346v81q225 -6 455 -6q233 0 467 6v-81q-174 -21 -174 -123q0 -17 11 -48.5t44.5 -100t58.5 -117t88 -170.5q6 -11 9 -17.5t8.5 -16.5t9.5 -18l80 205q78 204 78 268q0 117 -158 138v81q188 -6 360 -6q176 0 342 6v-81q-165 -7 -310.5 -198t-334.5 -611 q-2 -29 -2 -82q0 -177 72.5 -257.5t261.5 -117.5v-80q-270 6 -543 6q-271 0 -544 -6v80q93 21 148 39t95 47q54 37 76.5 112t22.5 201q0 61 -2 94l-248 443q-70 125 -103 168q-85 108 -228 151q-19 6 -40 11zM395 1767q0 74 46.5 120t117.5 46q72 0 120 -46.5t48 -114.5 q0 -70 -46 -117t-116 -47q-74 0 -122 46.5t-48 112.5zM866 1767q0 73 45.5 119.5t118.5 46.5q70 0 119 -46.5t49 -114.5q0 -70 -46 -117t-116 -47q-74 0 -122 46.5t-48 112.5z" />
<glyph unicode="&#x2c6;" horiz-adv-x="1024" d="M184 1071l256 483h142l254 -485l-68 -33l-252 277h-10l-256 -273z" />
<glyph unicode="&#x2dc;" horiz-adv-x="1024" d="M123 1169q48 63 73.5 93.5t61 63t69 44.5t74.5 12q29 0 117 -12t148 -12q54 0 89.5 27t73.5 92l66 -54q-42 -62 -66 -95.5t-55.5 -70t-57 -53.5t-57.5 -28t-69 -11q-54 0 -141.5 12.5t-118.5 12.5q-44 0 -77 -17t-75 -57z" />
<glyph unicode="&#x2000;" horiz-adv-x="1034" />
<glyph unicode="&#x2001;" horiz-adv-x="2068" />
<glyph unicode="&#x2002;" horiz-adv-x="1034" />
<glyph unicode="&#x2003;" horiz-adv-x="2068" />
<glyph unicode="&#x2004;" horiz-adv-x="689" />
<glyph unicode="&#x2005;" horiz-adv-x="517" />
<glyph unicode="&#x2006;" horiz-adv-x="344" />
<glyph unicode="&#x2007;" horiz-adv-x="344" />
<glyph unicode="&#x2008;" horiz-adv-x="258" />
<glyph unicode="&#x2009;" horiz-adv-x="413" />
<glyph unicode="&#x200a;" horiz-adv-x="114" />
<glyph unicode="&#x2010;" horiz-adv-x="872" d="M123 356v332h627v-332h-627z" />
<glyph unicode="&#x2011;" horiz-adv-x="872" d="M123 356v332h627v-332h-627z" />
<glyph unicode="&#x2012;" horiz-adv-x="872" d="M123 356v332h627v-332h-627z" />
<glyph unicode="&#x2013;" horiz-adv-x="1024" d="M61 383v281q266 -7 451 -7q189 0 451 7v-281q-225 6 -451 6q-223 0 -451 -6z" />
<glyph unicode="&#x2014;" horiz-adv-x="2048" d="M0 383v281q598 -7 1024 -7q429 0 1024 7v-281q-510 6 -1024 6q-511 0 -1024 -6z" />
<glyph unicode="&#x2018;" horiz-adv-x="645" d="M68 971q0 182 131.5 308t378.5 175l32 -94q-155 -53 -230 -116t-75 -144q0 -65 41.5 -99t120.5 -34q49 0 98 18q27 -59 27 -108q0 -90 -65.5 -150.5t-168.5 -60.5q-130 0 -210 84t-80 221z" />
<glyph unicode="&#x2019;" horiz-adv-x="645" d="M70 762q155 53 230 116t75 144q0 65 -41.5 99t-120.5 34q-49 0 -98 -18q-27 59 -27 108q0 91 64 151t167 60q130 0 210.5 -84t80.5 -221q0 -182 -131.5 -308t-378.5 -175z" />
<glyph unicode="&#x201a;" horiz-adv-x="645" d="M70 -279q155 53 230 116.5t75 144.5q0 65 -41.5 99t-120.5 34q-46 0 -98 -19q-27 59 -27 107q0 91 64 151t167 60q130 0 210.5 -84t80.5 -221q0 -182 -131.5 -308.5t-378.5 -175.5z" />
<glyph unicode="&#x201c;" horiz-adv-x="1251" d="M68 971q0 182 131.5 308t378.5 175l32 -94q-155 -53 -230 -116t-75 -144q0 -65 41.5 -99t120.5 -34q49 0 98 18q27 -59 27 -108q0 -90 -65.5 -150.5t-168.5 -60.5q-130 0 -210 84t-80 221zM676 971q0 182 130.5 308t377.5 175l33 -94q-156 -53 -231 -116t-75 -144 q0 -65 41.5 -99t120.5 -34q49 0 98 18q27 -59 27 -108q0 -91 -64 -151t-167 -60q-130 0 -210.5 84t-80.5 221z" />
<glyph unicode="&#x201d;" horiz-adv-x="1251" d="M70 762q155 53 230 116t75 144q0 65 -41.5 99t-120.5 34q-49 0 -98 -18q-27 59 -27 108q0 91 64 151t167 60q130 0 210.5 -84t80.5 -221q0 -182 -131.5 -308t-378.5 -175zM676 762q155 53 230 116t75 144q0 65 -41.5 99t-120.5 34q-49 0 -98 -18q-27 59 -27 108 q0 90 65.5 150.5t168.5 60.5q130 0 209.5 -84t79.5 -221q0 -182 -130.5 -308t-377.5 -175z" />
<glyph unicode="&#x201e;" horiz-adv-x="1251" d="M70 -279q155 53 230 116.5t75 144.5q0 65 -41.5 99t-120.5 34q-46 0 -98 -19q-27 59 -27 107q0 91 64 151t167 60q130 0 210.5 -84t80.5 -221q0 -182 -131.5 -308.5t-378.5 -175.5zM676 -279q155 53 230 116.5t75 144.5q0 65 -41.5 99t-120.5 34q-46 0 -98 -19 q-27 58 -27 107q0 90 65.5 150.5t168.5 60.5q130 0 209.5 -84t79.5 -221q0 -182 -130.5 -308.5t-377.5 -175.5z" />
<glyph unicode="&#x2022;" horiz-adv-x="1208" d="M307 762q0 123 87 209t210 86q122 0 208.5 -86t86.5 -209q0 -122 -87 -209.5t-210 -87.5t-209 87t-86 210z" />
<glyph unicode="&#x2026;" horiz-adv-x="2048" d="M111 203q0 97 66 164t163 67t164 -67t67 -164t-67 -164.5t-164 -67.5q-96 0 -162.5 67.5t-66.5 164.5zM793 203q0 97 66 164t163 67t164 -67t67 -164t-67 -164.5t-164 -67.5q-96 0 -162.5 67.5t-66.5 164.5zM1477 203q0 97 66 164t163 67t164 -67t67 -164t-67 -164.5 t-164 -67.5q-96 0 -162.5 67.5t-66.5 164.5z" />
<glyph unicode="&#x202f;" horiz-adv-x="413" />
<glyph unicode="&#x2039;" horiz-adv-x="595" d="M35 457v57q214 129 438 360l55 -32q-65 -177 -221 -357q163 -187 221 -360l-55 -35q-191 214 -438 367z" />
<glyph unicode="&#x203a;" horiz-adv-x="595" d="M68 125q58 173 221 360q-156 180 -221 357l53 32q224 -231 438 -360v-57q-247 -153 -438 -367z" />
<glyph unicode="&#x205f;" horiz-adv-x="517" />
<glyph unicode="&#x2122;" horiz-adv-x="1683" d="M207 1262l12 206h461l12 -206h-39q-6 75 -34 113.5t-84 39.5v-416q0 -42 24 -47l31 -8v-37h-281v37l33 8q25 6 25 47v416q-109 0 -121 -153h-39zM731 907v37l35 8q31 6 31 47v377q0 41 -31 47l-35 9v36h236l120 -342l111 342h221v-28l-20 -8q-18 -6 -23.5 -15.5 t-5.5 -32.5v-385q0 -23 5.5 -32t23.5 -15l20 -8v-37h-268v37l31 8q28 7 28 47v340l-135 -432h-53l-162 447v-355q0 -23 6 -33.5t23 -13.5l37 -8v-37h-195z" />
<glyph unicode="&#x25fc;" horiz-adv-x="952" d="M0 0v952h952v-952h-952z" />
<glyph unicode="&#xfb01;" horiz-adv-x="1402" d="M12 791v75l199 117q26 250 195 394.5t432 144.5q185 0 297 -76.5t112 -192.5q0 -83 -49 -132.5t-131 -49.5q-120 0 -205 125q-24 34 -53 87.5t-47 74t-43 20.5q-61 0 -99 -98.5t-38 -278.5q0 -10 1 -30.5t1 -30.5h98q296 0 489 25l60 -41v-643q0 -54 4 -81.5t21 -52.5 t48 -39t89 -28v-80q-212 4 -320 4q-107 0 -319 -4v80q60 22 76 54.5t16 103.5v43v299v63q0 50 -3.5 74t-18 43.5t-42.5 25t-80 5.5h-112v-510v-31q0 -76 17.5 -110t88.5 -60v-80q-204 4 -319 4q-108 0 -346 -4v80q38 4 65 9.5t47.5 11.5t32.5 18t19.5 22.5t10.5 32t4 38.5 t1 50v19v510h-199z" />
<glyph unicode="&#xfb02;" horiz-adv-x="1478" d="M12 791v75l199 117q35 252 182.5 392.5t368.5 140.5q181 0 340 -111l63 106h121q-4 -246 -4 -335v-895q0 -54 3.5 -80.5t20 -52t48 -39.5t90.5 -29v-80q-212 4 -320 4q-107 0 -319 -4v80q60 22 76 54.5t16 103.5v43v510h-307v-510v-23q0 -81 17.5 -116.5t88.5 -61.5v-80 q-204 4 -319 4q-108 0 -346 -4v80q38 4 65 9.5t47.5 11.5t32.5 18t19.5 22.5t10.5 32t4 38.5t1 50v19v510h-199zM588 1122q0 -24 1 -81.5t1 -92.5h307v193q-63 106 -126.5 163.5t-102.5 57.5q-50 0 -65 -53.5t-15 -186.5z" />
</font>
</defs>
</svg>
